<?xml version="1.0" standalone="no"?>
<!DOCTYPE svg PUBLIC "-//W3C//DTD SVG 1.1//EN" "http://www.w3.org/Graphics/SVG/1.1/DTD/svg11.dtd" >
<svg xmlns="http://www.w3.org/2000/svg">
<metadata></metadata>
<defs>
<font id="quicksanditalic" horiz-adv-x="613" >
<font-face units-per-em="1000" ascent="800" descent="-200" />
<missing-glyph horiz-adv-x="300" />
<glyph unicode="&#xd;" horiz-adv-x="333" />
<glyph unicode=" "  horiz-adv-x="300" />
<glyph unicode="&#x09;" horiz-adv-x="300" />
<glyph unicode="&#xa0;" horiz-adv-x="300" />
<glyph unicode="!" horiz-adv-x="252" d="M239 698q10 -2 15.5 -10.5t4.5 -18.5l-89 -502q-3 -20 -24 -20h-4q-23 5 -20 29l89 502q1 10 9.5 16t18.5 4zM128 70q23 -5 20 -29l-4 -23q-1 -9 -8.5 -14.5t-15.5 -5.5h-4q-11 2 -16.5 10.5t-3.5 18.5l4 23q1 10 9.5 16t18.5 4z" />
<glyph unicode="&#x22;" horiz-adv-x="410" d="M250 461l30 215q4 26 28 26h19q16 0 16 -17q0 -1 -5 -24l-57 -201q-6 -18 -17 -18q-17 0 -14 19zM70 461l30 215q4 26 28 26h19q16 0 16 -17q0 -1 -5 -24l-57 -201q-6 -18 -17 -18q-17 0 -14 19z" />
<glyph unicode="#" horiz-adv-x="700" d="M113 25l55 162h-101q-10 0 -15.5 6.5t-4.5 16.5t9.5 17t18.5 7h109l81 236h-110q-10 0 -16 6.5t-4 16.5q1 10 9.5 17t18.5 7h118l55 165q7 22 29 22q12 0 16 -8.5t1 -20.5l-53 -158h207l55 165q7 22 29 22q12 0 16 -8.5t1 -20.5l-53 -158h100q10 0 15.5 -6.5t4.5 -16.5 t-9.5 -17t-18.5 -7h-108l-81 -236h109q10 0 15.5 -6.5t4.5 -16.5t-9.5 -17t-18.5 -7h-117l-57 -169q-7 -22 -29 -22q-12 0 -16 8.5t-1 20.5l55 162h-207l-57 -169q-7 -22 -29 -22q-12 0 -16 8.5t-1 20.5zM232 234h207l81 236h-207z" />
<glyph unicode="$" horiz-adv-x="632" d="M454 738q3 10 12 17t19 7t15 -7t2 -17l-9 -40q92 -8 160 -70q11 -11 8.5 -22t-12 -18.5t-20 -7.5t-16.5 7q-56 56 -134 65l-71 -280q108 -24 148 -68.5t21 -121t-92 -128t-168 -54.5l-19 -78q-3 -10 -12 -17t-19 -7t-15 7t-2 17l19 79q-122 10 -201 97q-8 9 -5.5 20 t12 18.5t20 7.5t15.5 -7q66 -80 172 -91l73 285q-107 25 -145.5 69t-19.5 119.5t91.5 127t163.5 53.5zM456 84.5q56 38.5 69.5 94.5t-14 88.5t-115.5 53.5l-70 -276q74 1 130 39.5zM310 616q-54 -38 -68 -92.5t12 -87t114 -54.5l68 273q-72 -1 -126 -39z" />
<glyph unicode="%" horiz-adv-x="824" d="M314 412q-53 -53 -120.5 -53t-101 52.5t-21.5 124.5l1 2q12 73 65 126t120.5 53t101 -52.5t21.5 -124.5v-2q-13 -73 -66 -126zM76.5 11q-5.5 6 -4 14t6.5 14l603 663q11 11 20.5 11t15 -6t4 -14.5t-6.5 -13.5l-604 -663q-9 -11 -19 -11t-15.5 6zM657 54 q-53 -53 -120.5 -53t-101 52.5t-21.5 124.5v2q13 73 66 126t120.5 53t101 -52.5t21.5 -124.5l-1 -2q-12 -73 -65 -126zM137 441q23 -39 66.5 -39t78.5 38.5t45 95.5l1 2q10 58 -13.5 97t-66.5 39t-78.5 -39t-45.5 -95v-2q-10 -58 13 -97zM479 83q23 -39 66.5 -39t79 38.5 t45.5 95.5v2q10 58 -13 97t-66 39t-78.5 -39t-45.5 -95l-1 -2q-10 -58 13 -97z" />
<glyph unicode="&#x26;" horiz-adv-x="696" d="M439 320l34 -1q1 -1 5 -1q30 0 49 17t19 53v7q-1 10 6 17.5t17 8.5t17.5 -6t8.5 -17v-10q0 -61 -39 -92q-18 -15 -43 -22v-10q0 -23 -4 -40q-16 -94 -92.5 -159t-166 -65.5t-146.5 54.5q-55 55 -55 138q0 78 49 148q36 49 88 79q-27 38 -27 86q0 15 3 29 q12 69 67.5 116.5t122.5 48t108 -40.5t41 -103q0 -36 -10.5 -43.5t-20.5 -6t-16 10t-4 21.5t2 18q-1 42 -27 68t-73 27t-90 -36q-54 -47 -54 -109q0 -48 33 -73q18 -15 4 -35l-2 -1q-6 -6 -8 -6q-52 -23 -89 -68q-48 -61 -47.5 -127t41 -106t110.5 -41t134 54q80 68 80 162 v6q-9 1 -25 1q-96 0 -132 -44q-22 -24 -22 -58q0 -4 1 -5v-1q1 -10 -5 -18t-16 -9h-4q-19 0 -24 21q0 5 -1 12q3 54 33 90q51 61 170 61z" />
<glyph unicode="'" horiz-adv-x="230" d="M70 524q2 8 11 13q57 28 64 77q-26 7 -20 35l4 21q4 14 16 23.5t25.5 9.5t21 -10t3.5 -23l-5 -25q-16 -77 -48 -104q-41 -32 -60 -32q-15 0 -12 15z" />
<glyph unicode="(" horiz-adv-x="430" d="M146 -61q-103 92 -53 366q29 170 96 275q79 125 196 125q11 0 18 -8.5t5 -19.5t-12 -19.5t-21 -8.5q-79 -1 -140 -93q-58 -91 -87 -251q-27 -161 -1 -251q15 -48 40 -70.5t67 -22.5q11 0 18 -8.5t5 -20t-12 -19.5t-21 -8h-2q-58 0 -96 34z" />
<glyph unicode=")" horiz-adv-x="430" d="M325 671q103 -92 53 -366q-29 -170 -96 -275q-79 -125 -196 -125q-11 0 -18 8.5t-5 19.5t12 19.5t21 8.5q79 1 140 93q58 91 87 251q27 161 0 252.5t-106 91.5q-11 0 -18 8.5t-5 20t12 19.5t21 8h2q58 0 96 -34z" />
<glyph unicode="*" horiz-adv-x="430" d="M186 422l27 109l-102 -62q-9 -6 -17 -6t-13 6.5t-2.5 17t16.5 16.5l112 49l-94 49q-14 7 -11 19q4 19 24 21q6 0 15 -6l80 -62l11 109q1 9 8 15.5t16 6.5t13.5 -6.5t2.5 -15.5l-27 -109l102 62q9 6 17 6t13 -6.5t3 -14.5q-2 -13 -17 -19l-112 -49l94 -49q13 -6 11 -16.5 t-9 -17t-14 -6.5t-16 6l-80 62l-11 -109q-1 -9 -8 -15.5t-16 -6.5t-13.5 6.5t-2.5 15.5z" />
<glyph unicode="+" horiz-adv-x="620" d="M522 381q13 0 22.5 -9.5t9.5 -23.5t-9.5 -23.5t-22.5 -9.5h-185l-33 -185q-5 -27 -32 -27h-6q-13 3 -20.5 14t-5.5 24l30 174h-173q-13 0 -23 9.5t-10 23.5t10 23.5t23 9.5h185l33 185q2 14 13.5 21.5t24.5 5t20.5 -13.5t5.5 -24l-31 -174h174z" />
<glyph unicode="," horiz-adv-x="230" d="M56 -89q2 8 11 13q57 28 64 77q-26 7 -20 35l4 21q4 14 16 23.5t25.5 9.5t21 -10t3.5 -23l-5 -25q-16 -77 -48 -104q-41 -32 -60 -32q-15 0 -12 15z" />
<glyph unicode="-" horiz-adv-x="408" d="M85 328q-19 0 -19 19t19 19h213q19 0 19 -18q0 -9 -5.5 -14.5t-13.5 -5.5h-213z" />
<glyph unicode="." horiz-adv-x="230" d="M192.5 98.5q13.5 -16.5 8.5 -41t-23 -41t-43 -16.5t-38.5 16.5t-8.5 41t23.5 41t43 16.5t38 -16.5z" />
<glyph unicode="/" horiz-adv-x="500" d="M12 1q-22 11 -13 33l273 648q11 21 32 13q10 -4 13.5 -13t-0.5 -19l-273 -648q-6 -15 -17.5 -15t-14.5 1z" />
<glyph unicode="0" horiz-adv-x="710" d="M73 354q26 143 112.5 244.5t181 101.5t146.5 -76.5t52 -190.5q0 -39 -8 -87l-24 4l24 -4q-24 -139 -110 -242q-89 -104 -189 -104h-1q-87 0 -139.5 77.5t-52.5 189.5q0 39 8 87zM509 354q7 39 7 79q0 99 -41 158.5t-103 59.5q-79 0 -154 -88.5t-97 -216.5q-7 -38 -7 -79 q0 -99 41 -158.5t103 -59.5q79 0 153.5 88t97.5 217z" />
<glyph unicode="1" horiz-adv-x="335" d="M232 682v-5q1 -1 0 -2v-3l-115 -652q-4 -20 -24 -20q-13 0 -19.5 9.5t-4.5 19.5l106 601l-106 -57q-5 -3 -15 -3t-18 13q-11 22 10 33l151 81v1q2 0 3 1h2l2 1h8q1 0 2 -1h2l6 -3q5 -5 6 -5q0 -2 2 -4v-1q1 -1 1 -2z" />
<glyph unicode="2" horiz-adv-x="590" d="M535 624q37 -50 36.5 -111.5t-28.5 -116.5t-78 -94l-322 -252h322q10 0 17.5 -7t7.5 -17t-7 -17.5t-18 -7.5h-393q-13 0 -19.5 8.5t-5 19t9.5 16.5l378 295q42 33 65 78t23 92.5t-27 84.5q-42 57 -116 57t-136 -47l-39 -32q-8 -6 -18.5 -4.5t-16.5 9.5t-5 18t9 16l40 31 q74 58 162 58q103 0 159 -77z" />
<glyph unicode="3" horiz-adv-x="610" d="M580 656l-214 -186q69 -15 108 -64q58 -68 41 -167.5t-100.5 -169t-179.5 -69.5h-1q-98 0 -155 70q-6 7 -4 17t10 18q9 7 19.5 7t16.5 -7q45 -54 122 -54t143 54q65 56 78 134t-31.5 132t-122.5 54q-11 0 -18 10h-1q-14 18 6 36l206 179h-268q-10 0 -16.5 7t-4.5 18 t11 18t19 7h327q11 0 16.5 -7.5t4.5 -14.5q-2 -15 -12 -22z" />
<glyph unicode="4" horiz-adv-x="664" d="M554 694q1 0 4.5 2.5l3.5 2.5l2 1q2 0 3 1h9l13 -7l3 -3l2 -5q1 -1 1 -2t1 -2v-10l-85 -478h43q10 0 17.5 -7t7.5 -17t-7.5 -17.5t-17.5 -7.5h-51l-22 -124q-4 -20 -24 -20q-13 0 -19.5 9.5t-4.5 19.5l20 115h-379q-10 0 -17 7q-17 18 0 35zM132 194h330l72 409z" />
<glyph unicode="5" horiz-adv-x="605" d="M554 699q11 0 18.5 -7.5t7.5 -17.5t-7.5 -17.5t-18.5 -7.5h-309l-61 -204q60 29 119 29q100 0 158 -71q45 -55 45 -120q0 -128 -101 -216q-82 -68 -179.5 -68t-156.5 71q-7 8 -6 18.5t9 17.5q21 15 36 -4q42 -53 120 -53t144 57q40 34 62 78.5t22 95.5t-34 91 q-42 53 -120 53t-144 -57q-8 -7 -18.5 -6t-16.5 8.5t-6 14.5q-2 5 0 11l85 285q3 10 13 15q5 4 13 4h326z" />
<glyph unicode="6" horiz-adv-x="642" d="M155 391q79 73 172 73t151 -56q56 -56 56 -139q0 -12 -4 -40l-24 4l24 -4q-17 -95 -94.5 -160.5t-168.5 -66t-147 55.5t-56 139q0 10 1 15v3q12 171 103 310q112 170 288 177q10 1 17.5 -6t8 -17t-6.5 -17.5t-17 -8.5q-149 -5 -249 -155q-29 -46 -54 -107zM404 106 q81 69 81 163q-1 64 -42 104.5t-108 41.5h-1q-76 0 -140 -55q-81 -69 -81 -163q1 -64 42 -104.5t112 -41.5t137 55z" />
<glyph unicode="7" horiz-adv-x="587" d="M505 670l-2 -5l-1 -1l-389 -651q-6 -12 -17 -12t-18 4.5t-9.5 14.5t2.5 18l367 614h-334q-10 0 -17 7.5t-7 17.5t7 17t17 7h382q1 -1 2 -1q3 0 5 -2h1v-1q2 -1 3 -1l6 -7q0 -3 2 -5v-2q0 -1 1 -2v-5q0 -2 -1 -2v-3z" />
<glyph unicode="8" horiz-adv-x="630" d="M409 435q29 -14 52 -36q55 -55 55 -137q0 -115 -96 -196q-76 -65 -164.5 -65.5t-145.5 54.5q-55 55 -55 136q0 92 66 167q49 56 117 80l-7 7q-35 35 -35 88q0 74 61 125q48 41 105.5 41.5t93 -35t35.5 -88.5q0 -17 -2 -26q-14 -75 -80 -115zM245 550l-24 4l24 -4 q-1 -6 -1 -17q0 -33 21 -54t59.5 -22t74.5 30q44 38 44 89q0 33 -21 54t-59.5 22t-74.5 -30t-43 -72zM388 102q80 68 80 160q-1 63 -41 103t-110 40.5t-134 -54t-77 -128.5l-23 4l23 -4q-3 -17 -3 -32q1 -62 41.5 -102t110 -41t133.5 54z" />
<glyph unicode="9" horiz-adv-x="642" d="M479 644q56 -54 56 -139v-18q-14 -172 -104 -309q-112 -171 -287 -178h-1q-10 0 -17 7t-8 17q0 10 7 17.5t17 7.5q150 7 248 156q32 48 54 106q-78 -71 -180 -73q-86 0 -142 56q-56 54 -56 139q0 118 98 201q78 65 168.5 65.5t146.5 -55.5zM156.5 328.5 q40.5 -40.5 112 -41.5t136.5 55q81 69 81 163q-1 64 -41.5 104.5t-112 41.5t-136.5 -54.5t-78 -131.5l-24 4l24 -4q-3 -17 -3 -32q1 -64 41.5 -104.5z" />
<glyph unicode=":" horiz-adv-x="240" d="M249 588.5q9 -10.5 6.5 -25.5t-15 -25.5t-27.5 -10.5t-23.5 10.5t-5.5 25.5q2 15 14.5 25.5t27 10.5t23.5 -10.5zM155.5 59.5q8.5 -10.5 6 -25t-14.5 -25t-27 -10.5t-23.5 10.5t-6 25t15 25t27 10.5t23 -10.5z" />
<glyph unicode=";" horiz-adv-x="240" d="M209 589.5q12 10.5 27 10.5t23.5 -10.5t6.5 -25t-15 -25t-27.5 -10.5t-23 10.5t-6 25t14.5 25zM60 -88q0 8 9 13q55 29 55 77q-26 7 -23 35l2 21q1 14 12 23.5t25 9.5t22.5 -9.5t6.5 -23.5l-2 -25q-8 -76 -39 -104q-14 -13 -31 -22.5t-24 -9.5q-15 0 -13 15z" />
<glyph unicode="&#x3c;" horiz-adv-x="620" d="M62 359l2 5q2 2 2 3l380 325q9 8 21 7t19.5 -10t6.5 -21t-10 -20l-354 -303l244 -299q7 -10 6 -21.5t-9.5 -18.5t-21 -7t-19.5 10l-263 322q0 1 -2 3v1q-2 2 -2 4l-1 1v4q-1 1 -1 2v5q0 2 1 3v3q0 1 0.5 1t0.5 1z" />
<glyph unicode="=" horiz-adv-x="620" d="M477 267q13 0 21 -8.5t8 -20t-8 -20t-21 -8.5h-370q-11 0 -19.5 8.5t-8.5 20t8.5 20t19.5 8.5h370zM517 490q11 0 19.5 -8.5t8.5 -20t-8.5 -20t-19.5 -8.5h-370q-12 0 -20.5 8t-8.5 20t8.5 20.5t20.5 8.5h370z" />
<glyph unicode="&#x3e;" horiz-adv-x="620" d="M523 341l-2 -5q-3 -3 -3 -3.5t-3 -3.5l-376 -321q-7 -7 -19 -7t-20.5 9.5t-7.5 21.5t10 19l354 303l-244 300q-7 9 -6 20.5t10 19.5t21 7t19 -11l263 -321q1 -1 1 -2l3 -7q1 0 1 -1.5t1 -3.5v-7q0 -1 -1 -2v-3q0 -1 -0.5 -1t-0.5 -1z" />
<glyph unicode="?" horiz-adv-x="534" d="M122 63.5q8 5.5 17.5 4t15 -9.5t3.5 -17l-4 -22q-3 -20 -23 -20q-11 0 -17.5 9t-5.5 19l4 22q2 9 10 14.5zM247 699q80 0 132.5 -51.5t52.5 -130.5q0 -12 -4 -38q-15 -83 -80.5 -142.5t-149.5 -67.5l-19 -111q-3 -20 -23 -20q-13 0 -19 9t-4 19l22 125q0 1 1 2 q2 21 23 21q70 -1 131 50q75 65 75 153q-1 59 -38.5 97t-92 38.5t-98.5 -23t-74 -63.5q-6 -8 -15.5 -9t-17.5 4.5t-9 15t5 17.5q36 48 89.5 76.5t112.5 28.5z" />
<glyph unicode="@" horiz-adv-x="980" d="M556 180q0 -18 15 -18q24 0 47.5 20t31.5 32l1 1q63 90 62.5 194t-69.5 172.5t-179 69.5q-125 0 -231 -90t-128 -216q-4 -24 -4 -52q0 -106 69 -175t179 -70q35 0 77 10q10 2 18.5 -3t11 -15t-3 -19t-15.5 -11q-40 -10 -88 -10q-130 0 -213.5 83.5t-83.5 209.5q0 26 5 61 q26 144 144 244.5t263 101.5q129 0 214 -85q84 -82 84 -209q0 -116 -72 -220q-49 -59 -100 -71q-14 -2 -20 -2q-31 -1 -47 19.5t-16 47.5v12l4 24q-61 -54 -130 -54t-112 46.5t-42 110.5q0 96 76 164q59 53 129 53.5t112.5 -44.5t42.5 -112q0 -17 -2 -26.5t-2 -12.5t-1 -4 v-3l-26 -149q0 -1 -1 -5zM279 345q-3 -13 -3 -26q1 -48 29 -77.5t78 -30.5t97 41q59 54 59 128q-1 48 -28.5 77.5t-73.5 30.5h-2q-53 0 -99.5 -42.5t-56.5 -100.5z" />
<glyph unicode="A" horiz-adv-x="646" d="M518 182h-321l-93 -169q-6 -13 -16.5 -13t-16.5 3q-21 12 -10 33l360 651q6 13 25 13t22 -20l130 -651q2 -10 -3.5 -18.5t-15.5 -10.5h-5q-21 0 -24 20zM508 231l-75 377l-209 -377h284z" />
<glyph unicode="B" horiz-adv-x="594" d="M126 1q-24 6 -19 29l114 651q5 20 26 20h154q65 0 108 -43q42 -40 42 -105q0 -15 -3 -30q-15 -85 -89 -134q33 -14 56 -37q50 -48 48 -120q0 -17 -3 -35q-15 -82 -81 -138.5t-149 -57.5h-204zM515 232q-1 52 -34.5 85.5t-88.5 34.5h-179l-53 -302h170q63 -1 117 45.5 t65 109.5q3 13 3 27zM502 553q-1 44 -28.5 71t-72.5 28h-135l-44 -250h126q53 -1 98 38q56 48 56 113z" />
<glyph unicode="C" horiz-adv-x="719" d="M614 75q-110 -75 -239 -75t-216 84q-86 84 -86 211q0 34 5 59q26 145 147 245t269 101q125 0 212 -77q8 -7 8.5 -17.5t-6.5 -17.5q-16 -18 -34 -2q-73 65 -180 65q-129 1 -238 -89q-134 -113 -134 -267q0 -107 71.5 -176t183 -69.5t209.5 65.5q19 14 33.5 -5.5 t-5.5 -34.5z" />
<glyph unicode="D" horiz-adv-x="719" d="M126 -1q-23 5 -20 29l115 651q1 9 8 14.5t16 5.5h131q130 0 213.5 -83.5t83.5 -209.5q0 -26 -5 -61q-26 -144 -144 -244.5t-263 -101.5h-135zM266 650l-106 -602h101q125 -1 231 90q132 112 132 268q-1 106 -69.5 174.5t-178.5 69.5h-110z" />
<glyph unicode="E" horiz-adv-x="593" d="M126 -2q-23 5 -20 29l115 651q3 20 25 20h360q10 0 17 -7.5t7 -17.5t-7 -17t-17 -7h-340l-49 -277h290q10 0 17 -7t7 -17t-7 -17.5t-17 -7.5h-299l-49 -276h332q10 0 17 -7.5t7 -17.5t-7 -17t-17 -7h-365z" />
<glyph unicode="F" horiz-adv-x="600" d="M126 2q-24 6 -19 29l114 651q3 20 25 20h360q10 0 17 -7.5t7 -17.5t-7 -17t-17 -7h-340l-49 -277h290q10 0 17 -7t7 -17t-7 -17.5t-17 -7.5h-298l-54 -305q-1 -9 -8 -14.5t-16 -5.5h-5z" />
<glyph unicode="G" horiz-adv-x="800" d="M614 77q-109 -75 -238.5 -75t-216 84t-86.5 211q0 29 6 59q17 95 78 174.5t150.5 125.5t187.5 46q125 0 212 -77q8 -7 8.5 -17t-6.5 -18t-17 -8.5t-18 6.5q-72 65 -179 65q-129 1 -238 -89.5t-130 -215.5q-5 -30 -5 -51q1 -107 72.5 -176t180 -69.5t204.5 60.5l35 201 h-185q-10 0 -17 7t-7 17t7 17.5t17 7.5h213q14 0 20.5 -9.5t4.5 -19.5l-42 -238q0 -8 -3 -8v-1q-5 -8 -8 -9z" />
<glyph unicode="H" horiz-adv-x="760" d="M230.5 693q8.5 6 18.5 4.5t16 -10t4 -18.5l-52 -297h359l54 305q1 10 9.5 16t18.5 4.5t16 -10t4 -18.5l-115 -651q-1 -9 -8 -14.5t-16 -5.5h-4q-10 1 -16 9.5t-4 18.5l52 297h-359l-54 -305q-3 -20 -24 -20h-4q-10 1 -16 9.5t-4 18.5l115 651q1 10 9.5 16z" />
<glyph unicode="I" horiz-adv-x="305" d="M137 -2h-4q-10 1 -16 9.5t-4 18.5l115 651q1 10 9.5 16t18.5 4.5t16 -10t4 -18.5l-115 -651q-3 -20 -24 -20z" />
<glyph unicode="J" horiz-adv-x="594" d="M93 174q8 -56 49 -91t103 -35q79 -1 146 56t81 136l77 438q1 10 9.5 16t18.5 4.5t16 -10t4 -18.5l-77 -438q-18 -98 -97.5 -165.5t-177.5 -67.5h-1q-78 0 -133.5 47.5t-66.5 120.5q-1 10 5 18t16 10t18.5 -4.5t9.5 -16.5z" />
<glyph unicode="K" horiz-adv-x="715" d="M230.5 697q8.5 6 18.5 4.5t16 -10t4 -18.5l-70 -400l497 423q7 6 17 5t17 -8t6 -17.5t-9 -17.5l-318 -271l225 -348q6 -8 3.5 -18t-9.5 -14.5t-17.5 -4.5t-17.5 11l-222 343l-185 -158h-1l-31 -176q-3 -20 -24 -20h-4q-10 1 -16 9.5t-4 18.5l115 651q1 10 9.5 16z" />
<glyph unicode="L" horiz-adv-x="619" d="M515 23q0 -10 -7 -17t-18 -7h-364q-10 1 -16 9.5t-4 18.5l115 651q1 10 9.5 16t18.5 4.5t16 -10t4 -18.5l-110 -623h331q10 0 17.5 -7t7.5 -17z" />
<glyph unicode="M" horiz-adv-x="868" d="M452 278h-3q-15 0 -21 13l-170 312l-103 -584q-1 -9 -8 -14.5t-16 -5.5h-5q-10 1 -16 9.5t-4 18.5l115 651q2 9 9 15t16 5q14 2 23 -12l186 -344l312 348q8 10 19 8q3 2 5 0q10 -1 16 -9.5t4 -18.5l-115 -651q-3 -20 -24 -20h-4q-10 1 -16 9.5t-4 18.5l101 569l-279 -310 q-6 -8 -18 -8z" />
<glyph unicode="N" horiz-adv-x="790" d="M106 30l114 648l1 1q0 11 12 20q22 11 33 -10l322 -591l102 580q1 10 9.5 16t18.5 4q23 -5 20 -29l-114 -647q-1 -9 -8.5 -14.5t-15.5 -5.5h-4q-11 1 -14.5 7.5t-5.5 8.5l-319 586l-103 -582q-3 -20 -24 -20h-4q-10 1 -16 9.5t-4 18.5z" />
<glyph unicode="O" horiz-adv-x="850" d="M467 700q122 0 200.5 -83.5t78.5 -206.5q0 -32 -6 -65l-24 5l24 -5q-26 -144 -138.5 -244.5t-242.5 -100.5t-208 82t-78 207q0 32 6 65q26 144 138 244.5t250 101.5zM692 354q5 32 5 56q-1 105 -65 172.5t-165 68.5h-2q-116 0 -216 -90t-122 -216q-5 -32 -5 -56 q1 -105 65 -172.5t165 -68.5q117 0 217.5 90t122.5 216z" />
<glyph unicode="P" horiz-adv-x="583" d="M245 700h198q74 0 123 -49q48 -46 48 -120q0 -17 -3 -35q-15 -82 -81.5 -138.5t-148.5 -57.5h-178l-49 -280q-3 -20 -24 -20q-13 0 -19.5 9.5t-4.5 19.5l115 651q1 9 8 14.5t16 5.5zM565 531q0 53 -33.5 86t-88.5 34h-178l-53 -302h169q62 -1 117 45q67 57 67 137z" />
<glyph unicode="Q" horiz-adv-x="844" d="M764 -50q10 -19 -11 -35q-86 -59 -168 -59h-1q-76 0 -164 57q-32 22 -70.5 22t-67 -8t-38.5 -14h-1q-15 -8 -27 2h-1q-19 30 13 45l100 42q-122 17 -188 117.5t-41.5 240.5t141 244.5t255.5 105.5q92 -1 161 -49t99 -130t12 -183.5t-91 -190.5t-171 -131l-109 -46 q30 -6 56 -24q78 -51 140.5 -51t137.5 49q9 7 19 6t15 -10zM269 570.5q-100 -89.5 -122.5 -216.5t46 -216.5t186 -89.5t218 89.5t123 216.5t-46.5 216.5t-186.5 89.5t-217.5 -89.5z" />
<glyph unicode="R" horiz-adv-x="625" d="M480 186q-1 50 -46 84q-28 20 -67 30h-177l-49 -280q-4 -20 -24 -20q-14 0 -20.5 9.5t-4.5 19.5l115 651q3 20 25 20h197q76 0 123 -49q49 -47 49 -120q0 -78 -54 -143q-40 -47 -96 -71q78 -47 77 -131q0 -11 -2 -33q-7 -36 -7 -60.5t5 -32.5q19 2 26 -18q3 -10 -2 -18.5 t-15 -11.5q-2 -2 -11 -2h-1q-22 0 -36.5 20.5t-14.5 55.5t5 61.5t5 38.5zM252 651l-53 -302h168q63 -1 117.5 45.5t65.5 109.5q2 18 2 27q-1 53 -34.5 86t-88.5 34h-177z" />
<glyph unicode="S" horiz-adv-x="667" d="M73 100q-6 5 -5.5 14t7.5 16t16 8t15 -5q96 -89 210 -89q89 0 158.5 45t79 102t-38 93.5t-151.5 57.5h-2q-226 45 -201 179q13 77 92 128t176 51q42 0 83 -14t63 -28t54 -38q16 -11 1 -30q-16 -18 -32 -6q-33 24 -52 36t-54 24.5t-70 12.5q-81 0 -147 -42 q-62 -41 -71 -92.5t37 -86t137 -51.5h2q108 -21 164 -63q67 -50 52.5 -131.5t-101.5 -135.5q-84 -55 -187 -55q-132 1 -235 100z" />
<glyph unicode="T" horiz-adv-x="648" d="M219 21q-4 -20 -20.5 -20t-23 9.5t-4.5 19.5l109 622h-206q-10 0 -17 7.5t-7 17.5t7 17t17 7h471q10 0 17 -7t7 -17t-7 -17.5t-17 -7.5h-215z" />
<glyph unicode="U" horiz-adv-x="814" d="M724 701q23 -5 20 -29l-70 -392q-21 -116 -116 -197t-211 -82h-1q-103 0 -173 68q-68 68 -68 170q0 21 5 49l69 393q1 10 9.5 16t18.5 4q23 -5 20 -29l-69 -392q-4 -19 -4 -41q1 -82 54 -135t144.5 -54t174.5 70t99 168l70 393q1 10 9.5 16t18.5 4z" />
<glyph unicode="V" horiz-adv-x="750" d="M259 7q-1 -1 -2 -1t-2.5 -1l-4.5 -3h-1q-2 -1 -6 -1t-6 1h-1q-4 2 -5 3h-1q0 1 -1 1t-6 5q-2 3 -4 9l-159 651q-3 10 2.5 18.5t15.5 11t18.5 -2.5t10.5 -15l145 -594l359 600q5 9 15 11.5t18.5 -2.5t11 -15t-2.5 -19l-389 -651l-4 -4q0 -1 -0.5 -1t-0.5 -1z" />
<glyph unicode="W" horiz-adv-x="1102" d="M667 5l-10 -5h-4q-1 0 -1 -0.5t-1 -0.5l-6 1h-1q-4 2 -5 3h-1q-2 2 -4 3q-6 5 -6 8t-1 4l-103 423l-257 -430l-1 -1q0 -2 -1.5 -3t-2 -1t-2.5 -1.5t-2 -2.5t-5 -1l-1 -1h-4l-2 -1l-6 1h-1q-4 2 -5 3h-1q-2 2 -4 3q-4 4 -7 12l-159 651q-5 23 18 30q10 2 18.5 -3t10.5 -15 l146 -594l254 426q8 12 20 13q23 1 28 -19l103 -420l358 600q5 9 15 11.5t19 -2.5q20 -13 8 -34l-389 -651q-2 -2 -3 -3.5t-1.5 -1.5t-0.5 -1z" />
<glyph unicode="X" horiz-adv-x="722" d="M426 345l172 -310q11 -22 -10 -34q-6 -3 -16 -3t-17 13l-164 296l-272 -301q-8 -8 -18 -8t-17 7q-18 16 -2 34l284 313l-172 310q-5 9 -2 18.5t11 14.5q9 5 19 2.5t15 -11.5l164 -296l272 300q7 8 17 8.5t17.5 -6.5t8 -17.5t-6.5 -17.5z" />
<glyph unicode="Y" horiz-adv-x="604" d="M581 658l-294 -324l-55 -315q-1 -9 -8.5 -14.5t-15.5 -5.5h-5q-10 1 -16 9.5t-4 18.5l56 314l-178 321q-5 9 -2 18.5t11 14.5q9 5 19 2.5t15 -11.5l165 -299l275 303q7 8 17 8.5t18 -6.5q18 -16 2 -34z" />
<glyph unicode="Z" horiz-adv-x="667" d="M707 661l-2 -4l-554 -610h421q10 0 17 -7t7 -17t-7 -17.5t-17 -7.5h-477l-4 1h-2q-1 1 -2 1t-1 0.5t-1 0.5l-4 3q-1 0 -4 3q0 1 -1 1q-3 0 -3 7l-1 2v3q0 1 -1 2v1l1 1v5q3 3 3 7l2 2q0 1 1 1l553 610h-420q-11 0 -18 7.5t-7 17.5t7.5 17t17.5 7h480q1 0 2 -1h2 q1 -1 2 -1t1 -1h1q2 -2 4 -3.5t2.5 -2t0.5 -1.5q0 -2 2 -2l1 -2q0 -2 1 -2v-3q1 0 1 -2v-7q-1 -1 -1 -2q0 -3 -2 -5q0 -2 -1 -2z" />
<glyph unicode="[" horiz-adv-x="430" d="M101 -104l163 778q2 10 11.5 18t20.5 8h232q7 0 12 -5.5t3.5 -13t-9 -13.5t-15.5 -6h-212l-157 -754h212q7 0 11.5 -5.5t3 -13t-8.5 -13.5t-15 -6h-232q-10 0 -16 7.5t-4 18.5z" />
<glyph unicode="\" horiz-adv-x="500" d="M320 3q-3 -1 -14.5 -1t-17.5 15l-273 648q-4 10 -0.5 19t13.5 13q21 8 32 -13l273 -648q9 -22 -13 -33z" />
<glyph unicode="]" horiz-adv-x="430" d="M499 674l-163 -778q-2 -10 -11.5 -18t-20.5 -8h-232q-7 0 -12 5.5t-3.5 13t9 13.5t15.5 6h212l157 754h-212q-7 0 -11.5 5.5t-3 13t8.5 13.5t15 6h232q10 0 16 -7.5t4 -18.5z" />
<glyph unicode="^" horiz-adv-x="500" d="M278 659l-148 -157q-13 -14 -37 -14q-6 0 -9.5 3.5t-3 8t7.5 12.5l164 176q18 18 31 18h8q14 0 25 -18l102 -176q3 -6 3 -13q-2 -11 -22.5 -11t-28.5 14z" />
<glyph unicode="_" horiz-adv-x="600" d="M-5 -160q-9 0 -13.5 6.5t-1.5 15.5q2 9 10.5 15.5t17.5 6.5h604q9 0 13.5 -6.5t2 -15.5t-11 -15.5t-17.5 -6.5h-604z" />
<glyph unicode="`" horiz-adv-x="500" d="M285 601q0 -9 -16 -9t-28 13l-69 77q-9 11 -8 18.5t16 15t30 7.5t24 -18l49 -93q3 -5 2 -11z" />
<glyph unicode="a" horiz-adv-x="619" d="M235 0q-85 0 -140 58t-55 145q0 25 4 45q18 100 95.5 169.5t168 70t146.5 -58.5q18 -20 29 -40l14 79q2 10 9.5 15.5t17.5 4t15.5 -9.5t4.5 -18l-78 -440q-3 -20 -24 -20h-4q-10 2 -15.5 10t-3.5 18l11 64q-81 -90 -195 -92zM91 240q-4 -17 -4 -37q1 -68 42 -111 t111.5 -44t137.5 58q83 74 83 179q-1 68 -41.5 111t-106.5 44h-1q-76 0 -141.5 -59t-79.5 -141z" />
<glyph unicode="b" horiz-adv-x="660" d="M115 -2q-24 6 -19 29l114 651q5 23 29 20q23 -5 20 -29l-49 -273q84 90 200 92q89 0 145.5 -58.5t56.5 -146.5q0 -24 -4 -44l-24 4l24 -4q-18 -101 -97.5 -170.5t-177.5 -70.5h-1q-88 0 -145 59q-18 20 -29 40l-14 -79q-1 -9 -8.5 -14.5t-15.5 -5.5h-5zM409 439 q-78 0 -145.5 -59.5t-80.5 -140.5q-4 -17 -4 -36q1 -69 43 -112t115.5 -44t140.5 59q85 74 85 177q-1 69 -42.5 112t-110.5 44h-1z" />
<glyph unicode="c" horiz-adv-x="571" d="M58 208q0 22 4 41q18 101 101.5 170.5t180 70t156.5 -53.5q17 -17 0.5 -34.5t-32.5 -1.5q-47 42 -124.5 42.5t-149.5 -59.5q-88 -74 -88 -175q0 -69 46.5 -113.5t119.5 -45t137 43.5q8 5 18 3t15 -10q12 -20 -6 -33q-78 -52 -167 -52t-150 59t-61 148z" />
<glyph unicode="d" horiz-adv-x="660" d="M261 1q-88 0 -144.5 58.5t-56.5 146.5q0 24 4 44q18 101 97.5 170.5t173 70t150.5 -58.5q12 -12 30 -40l50 289q2 10 10.5 15.5t18.5 4.5q23 -5 20 -29l-115 -651q-1 -9 -8 -14.5t-16 -5.5h-4q-11 2 -16.5 10.5t-3.5 18.5l11 63q-85 -92 -200 -92h-1zM112 242l-24 4 l24 -4q-3 -20 -3 -36q1 -69 42.5 -112t115 -44t141.5 58q85 75 85 178q-1 69 -43 112t-115 44t-141 -58.5t-82 -141.5z" />
<glyph unicode="e" horiz-adv-x="609" d="M539 286q0 -14 -3 -32q-6 -19 -23 -19h-405q-2 -10 -2 -30q0 -68 42.5 -111.5t101.5 -43.5q113 -1 186 89q7 8 16.5 9t17.5 -6q18 -15 3 -32q-39 -50 -95.5 -79.5t-118.5 -29.5h-1q-87 0 -143.5 58.5t-56.5 145.5q0 24 4 45q18 100 97.5 169.5t172.5 70t150 -58.5 t57 -145zM338 442q-68 1 -129.5 -44.5t-87.5 -113.5h370v2q-1 68 -43 111.5t-110 44.5z" />
<glyph unicode="f" horiz-adv-x="362" d="M327 699q10 0 15.5 -7.5t4 -17.5t-10 -17t-18.5 -7q-44 0 -66 -20.5t-33 -79.5l-9 -52h69q10 0 16 -7t4.5 -17t-10 -17.5t-18.5 -7.5h-69l-76 -426q-1 -10 -9.5 -17t-18.5 -7t-16 7t-4 17l75 426h-66q-10 0 -15 7q-14 19 6 35q8 7 18 7h65l9 52q14 77 52 114 q39 35 105 35z" />
<glyph unicode="g" horiz-adv-x="660" d="M257 -1q-86 0 -141.5 58t-55.5 144q0 19 5 46q18 99 96 169.5t168 71t147 -58.5q18 -20 28 -41l14 80q5 23 27 20q11 -2 16.5 -10.5t3.5 -18.5l-75 -427q-18 -95 -95 -161t-171 -67q-55 0 -100 25q-9 4 -12 13.5t2 18.5q12 19 32 9q36 -18 78 -18q74 -1 140 55.5 t79 133.5l8 48q-85 -90 -193 -90h-1zM112 238q-4 -17 -4 -37q1 -69 42 -111.5t112 -43t137 58t80 142.5q4 16 4 35q-1 70 -42 113.5t-108 43.5h-1q-74 0 -140.5 -59.5t-79.5 -141.5z" />
<glyph unicode="h" d="M113 -1q-20 5 -20 23q0 4 1 5l114 651q2 11 10.5 16.5t18.5 4t16 -10t4 -18.5l-42 -248q70 66 162 68q74 0 124.5 -49.5t50.5 -123.5q0 -17 -3 -35l-48 -263q-1 -9 -8 -14.5t-16 -5.5h-5q-10 2 -15.5 10t-3.5 18l48 263q2 20 2 27q-1 55 -35.5 89t-94.5 35t-116 -46.5 t-67 -112.5l-48 -263v-1q-1 -1 -1 -4q-3 -3 -3 -4t-2 -3.5t-4 -2.5l-3 -3q-1 0 -2 -1h-2l-2 -1h-10z" />
<glyph unicode="i" horiz-adv-x="281" d="M116 0q-10 1 -15.5 9.5t-3.5 17.5l77 443q1 10 9.5 15.5t18.5 4.5q24 -6 19 -29l-78 -442q-3 -19 -23 -19h-4zM243 584q-3 -20 -24 -20h-4q-10 2 -15.5 10t-3.5 18l4 23q1 9 9.5 15t18 4.5t15.5 -10t4 -18.5z" />
<glyph unicode="j" horiz-adv-x="249" d="M237 586q-1 -9 -7.5 -14.5t-14.5 -5.5h-5q-9 2 -14.5 10t-3.5 18l3 23q2 9 10 14.5t16 3.5q24 -5 21 -27zM195 490q23 -4 18 -27l-102 -574q-6 -33 -32 -55.5t-60 -23.5q-10 0 -17 7t-7 17t7 16.5t19 6t27 12t17 28.5l103 575q1 9 9 14.5t18 3.5z" />
<glyph unicode="k" horiz-adv-x="560" d="M475 17q-2 -10 -9 -14.5t-17.5 -4.5t-18.5 11l-145 224l-121 -102q0 -1 -1 -1l-19 -112q-5 -20 -24 -20h-5q-10 1 -16 9.5t-4 18.5l115 651q2 11 10.5 16.5t18.5 3.5t15.5 -10t3.5 -18l-81 -463l338 287q7 7 17.5 6t16.5 -9q16 -18 -2 -34l-225 -191l149 -230q6 -8 4 -18 z" />
<glyph unicode="l" horiz-adv-x="249" d="M226.5 695q8.5 6 18.5 4.5t16 -10t4 -18.5l-115 -651q-3 -20 -24 -20h-4q-10 1 -16 9.5t-4 18.5l115 651q1 10 9.5 16z" />
<glyph unicode="m" horiz-adv-x="951" d="M493 292l3 27q-1 53 -34.5 86.5t-93 34.5t-114 -45.5t-65.5 -110.5l-47 -267q0 -3 -1 -4v-1q-1 0 -1 -1q0 -3 -2 -3q0 -1 -3 -3.5t-4 -2.5q-3 -2 -3 -3h-3l-1 -1h-9q-10 1 -16 9.5t-4 18.5l47 266v1l31 175q6 24 28 19q10 -2 15.5 -9.5t3.5 -17.5l-6 -39q67 65 158 67 q76 0 123 -49q24 -24 36 -56q34 47 84.5 75.5t116 29t114 -48t48.5 -120.5q0 -17 -3 -35l-47 -267q-3 -19 -24 -19h-4q-10 2 -15.5 10t-3.5 18l47 266q2 20 2 27q-1 53 -34.5 86.5t-92.5 34t-113 -44.5t-65 -108q0 -1 -1 -3l-47 -267q-3 -16 -18 -19h-10q-10 1 -15.5 9.5 t-3.5 18.5z" />
<glyph unicode="n" d="M123 0h-9q-10 1 -15.5 9.5t-3.5 18.5l47 264v1l30 175q2 10 10 15.5t18 4t16 -9.5t4 -18l-7 -39q69 65 157 67q76 0 123.5 -48.5t47.5 -120.5q0 -17 -3 -35l-47 -265q-3 -19 -24 -19h-3q-10 2 -15.5 10t-3.5 18l46 264q2 20 2 27q-1 53 -34 86.5t-92 34.5t-113.5 -45.5 t-65.5 -109.5l-46 -266l-3 -8q-4 -4 -4 -5l-2 -2q-5 0 -5 -3h-3q-1 -1 -2 -1z" />
<glyph unicode="o" horiz-adv-x="625" d="M541 286q0 -25 -4 -46l-23 5l23 -5q-18 -100 -96 -170t-174 -70h-1q-85 0 -140.5 58.5t-55.5 145.5q0 24 4 45q18 100 96.5 170t169 70.5t146 -57.5t55.5 -146zM490 249q4 24 4 37q-1 68 -42 111.5t-107 44.5h-2q-76 0 -142 -60q-83 -74 -83 -178q1 -69 42 -112.5 t112 -44.5t137.5 59t80.5 143z" />
<glyph unicode="p" horiz-adv-x="660" d="M367 5q-112 0 -174 96l-50 -285q-3 -20 -24 -20h-4q-23 5 -20 29l114 643q1 10 9.5 16t19 4t16 -10.5t3.5 -18.5l-11 -62q85 89 195 91q90 0 144 -59q57 -57 57 -145q0 -23 -4 -43q-18 -99 -96.5 -167.5t-174.5 -68.5zM440 439q-75 0 -142 -59q-83 -73 -83 -175 q1 -67 43 -109t113.5 -43t138.5 57q83 73 83 174q-1 69 -42.5 111.5t-109.5 43.5h-1z" />
<glyph unicode="q" horiz-adv-x="660" d="M430 -206q-23 5 -20 29l48 271q-81 -90 -198 -92q-87 0 -143.5 59t-56.5 144q0 24 4 44q18 99 97 168.5t171 70t149 -58.5q12 -12 30 -40l14 79q1 10 9.5 16t18.5 4q23 -5 20 -29l-115 -645q-1 -9 -8.5 -14.5t-15.5 -5.5h-4zM152 95q42 -43 114 -44t139 58q84 74 84 176 q-1 67 -43 110t-114 44t-139 -57.5t-81 -140.5l-24 4l24 -4q-3 -19 -3 -36q1 -67 43 -110z" />
<glyph unicode="r" horiz-adv-x="439" d="M119 1q-12 0 -18.5 9t-4.5 19l39 220v1l39 218q2 10 9.5 15.5t17.5 4.5t15.5 -9.5t3.5 -18.5l-17 -99q2 3 7 8q96 119 212 119q10 0 17 -7t7 -17t-7 -17t-17 -7q-80 1 -159 -81q-42 -45 -79 -115l-3 -6l-38 -217q-3 -20 -24 -20z" />
<glyph unicode="s" horiz-adv-x="492" d="M60 69q-16 16 2 34q8 8 18 9t17 -6q60 -58 135 -58q58 0 101 28.5t49 61.5q11 67 -122 92l-1 1q-71 13 -106 40q-46 34 -36 89.5t69 94.5q56 35 123 35q30 0 58.5 -10t43 -19t37.5 -26q7 -5 7.5 -15t-6.5 -18t-17 -10t-17 3q-66 48 -116 48t-89.5 -26t-44.5 -55t21 -51 q30 -22 89 -33l2 -1q74 -13 114 -43q50 -36 38 -95q-10 -59 -71 -99t-143.5 -39.5t-154.5 68.5z" />
<glyph unicode="t" horiz-adv-x="400" d="M66 76l1 15l64 350h-64q-10 0 -17.5 7t-7.5 17.5t7 17.5t18 7h73l31 191q5 23 29 20q10 -2 15.5 -10t4.5 -18l-31 -183h126q10 0 17 -7.5t7 -17.5t-7 -17t-17 -7h-134l-65 -358q-1 -2 -1 -7q2 -25 27 -26q10 0 17.5 -7t7.5 -17t-7.5 -17.5t-17.5 -7.5q-32 0 -54 22 t-22 53z" />
<glyph unicode="u" d="M491.5 483.5q7.5 5.5 17.5 4t15.5 -9.5t3.5 -18l-46 -265q-15 -82 -81 -137.5t-143.5 -56t-126 48t-48.5 119.5q0 17 3 35l47 264q2 10 10 15.5t17.5 4t15 -9.5t3.5 -18l-46 -265q-2 -18 -2 -26q1 -53 34 -86t92 -34t113.5 45.5t64.5 109.5l47 264q2 10 9.5 15.5z" />
<glyph unicode="v" horiz-adv-x="582" d="M173 6q-8 8 -8 10q-2 2 -2 4l-107 437q-2 9 2.5 17.5t14.5 11t18 -2.5t10 -15l94 -381l231 388q13 20 33 8q8 -5 10.5 -15t-2.5 -18l-261 -436q-1 0 -1 -1l-4 -5l-9 -5h-1q-2 -1 -4.5 -1t-6.5 1h-1q-4 2 -5 3h-1z" />
<glyph unicode="w" horiz-adv-x="861" d="M178 6q-10 10 -10 15l-107 436q-5 22 17 29q10 2 18.5 -3t10.5 -15l94 -381l161 270q6 12 20 12q20 2 24 -18l66 -264l231 388q13 20 32 8q8 -5 10.5 -15t-2.5 -18l-260 -436q-1 -3 -4 -4l-1 -2q-2 -2 -3 -2t-1 -0.5t-1 -0.5l-4 -2h-5q-1 -1 -2 -1l-5 1h-1l-6 3h-1 q-10 10 -10 15l-65 266l-162 -273l-5 -6l-9 -4q0 -1 -1 -1h-3q-2 -1 -3 -1t-5 1h-1l-6 3h-1z" />
<glyph unicode="x" horiz-adv-x="570" d="M472 478q16 18 34 2q17 -17 1 -34l-187 -205l113 -203q10 -21 -9 -33q-6 -3 -16 -3t-16 13l-104 190l-176 -195q-8 -8 -18 -8t-16 7q-8 6 -8.5 16t6.5 17l187 205l-113 204q-5 8 -2 17.5t11 14.5q21 12 33 -9l104 -190z" />
<glyph unicode="y" horiz-adv-x="588" d="M488 488q9 -2 14.5 -8t5.5 -13q2 -3 0 -7l-75 -426q-17 -95 -94.5 -160.5t-172.5 -66.5q-52 0 -98 23q-21 12 -10 34q11 20 32 9q34 -18 76 -18q76 -1 141.5 55t78.5 132l4 23q-69 -64 -150 -64t-130 47q-47 47 -47 119q0 18 3 36l46 266q2 9 10 14.5t18 4.5 q24 -6 19 -28l-47 -266q-2 -9 -2 -27q1 -52 34.5 -85.5t92 -34t113 45.5t64.5 110l47 266q1 9 9.5 15t17.5 4z" />
<glyph unicode="z" horiz-adv-x="554" d="M512 472v-10q-1 -1 -1 -2q0 -4 -2 -4q0 -2 -1 -2l-2 -4l-367 -404h271q10 0 17 -7t7 -17t-7 -17t-17 -7h-326q-2 1 -3 1h-2q-5 5 -7.5 5t-2.5 1l-2 2q-1 0 -1 2l-2 1q0 2 -1 3v2q-1 0 -1 2v2q-1 1 -1 3v2q0 1 1 2v3q1 1 1 2t0.5 2t1 1t0.5 1l2 2v1l367 405h-271 q-10 0 -17 6.5t-7 16.5t7 17t17 7h329q2 0 3 -1h2q2 -2 4 -2l3 -3h1l6 -10q0 -2 1 -2z" />
<glyph unicode="{" horiz-adv-x="480" d="M287 -139q-149 33 -155 111q-3 38 12 90l22 79q11 39 10 67q-2 60 -99 60q-25 0 -18 19q5 19 29 19q73 0 108.5 31.5t54.5 95.5l22 79q12 42 28 71t45 55q55 49 186 75q9 2 14 -2.5t3 -13.5q-5 -12 -17 -16q-112 -27 -150.5 -61.5t-60.5 -113.5l-22 -75q-18 -63 -54 -96 t-91 -48q32 -12 48.5 -27.5t22.5 -44.5t-9 -72l-22 -75q-26 -73 -5.5 -110.5t116.5 -64.5q11 -5 7 -16q-5 -20 -25 -16z" />
<glyph unicode="|" horiz-adv-x="286" d="M123 -116l157 890q6 22 26 22q9 0 14.5 -6.5t3.5 -15.5l-157 -890q-4 -22 -25 -22q-9 0 -14.5 6.5t-4.5 15.5z" />
<glyph unicode="}" horiz-adv-x="480" d="M318 713q149 -33 155 -111q3 -38 -12 -90l-22 -79q-11 -39 -10 -67q2 -60 99 -60q25 0 18 -19q-5 -19 -29 -19q-73 0 -108.5 -31.5t-54.5 -95.5l-22 -79q-12 -42 -28 -71t-45 -55q-55 -49 -186 -75q-9 -2 -14 2.5t-3 13.5q5 12 17 16q112 27 150.5 61.5t60.5 113.5l22 75 q18 63 54 96t91 48q-32 12 -48.5 27.5t-22.5 44.5t9 72l22 75q26 73 5.5 110.5t-116.5 64.5q-11 5 -7 16q5 20 25 16z" />
<glyph unicode="~" horiz-adv-x="460" d="M121 254q-7 -14 -18 -14q-18 0 -18 17q0 6 2 12q14 42 32.5 58.5t42.5 16.5t70 -20.5t62 -20.5t26 8.5t19 29.5q7 14 18 14q18 0 18 -17q0 -6 -2 -12q-14 -42 -32.5 -58.5t-42.5 -16.5t-70 20.5t-62 20.5t-26 -8.5t-19 -29.5z" />
<glyph unicode="&#xa1;" horiz-adv-x="252" d="M115 0q-10 2 -15.5 10.5t-4.5 18.5l89 502q3 20 24 20h4q23 -5 20 -29l-89 -502q-1 -10 -9.5 -16t-18.5 -4zM226 628q-23 5 -20 29l4 23q1 9 8.5 14.5t15.5 5.5h4q11 -2 16.5 -10.5t3.5 -18.5l-4 -23q-1 -10 -9.5 -16t-18.5 -4z" />
<glyph unicode="&#xa2;" horiz-adv-x="581" d="M181 21l31 82q-72 27 -108.5 96t-21.5 154l1 2q19 108 109 187.5t198 79.5h15l25 68q8 20 23.5 20t21.5 -9t1 -22l-24 -64q63 -16 115 -75q7 -9 6 -20q-5 -25 -28 -25q-12 0 -18 8q-45 53 -95 66l-161 -432q18 -3 36 -3q87 0 173 73q11 9 20 9t14.5 -7t4 -16t-10.5 -16 q-99 -89 -212 -89q-26 0 -39 2l-30 -80q-8 -20 -24 -20t-21.5 9t-0.5 22zM136 355q-13 -70 14 -126t83 -80l157 427h-9q-87 0 -157.5 -63.5t-87.5 -155.5v-2z" />
<glyph unicode="&#xa3;" horiz-adv-x="644" d="M67 13q3 11 16 14l81 18l63 260h-66q-10 0 -15.5 7t-3.5 17t11 17t19 7h66l28 118q28 115 104.5 177t168.5 62q122 0 177 -93q6 -10 3 -19q-7 -24 -31 -24q-11 0 -18 9q-25 39 -57 59.5t-94 20.5t-120 -46.5t-81 -144.5l-29 -119h278q10 0 15 -7t3 -17t-10.5 -17 t-18.5 -7h-278l-62 -258h354q10 0 15 -7t3 -17t-11 -16.5t-19 -6.5h-481q-12 0 -10 13z" />
<glyph unicode="&#xa5;" horiz-adv-x="686" d="M213 24l21 143h-154q-12 0 -19 8t-5 19.5t11 19.5t21 8h154l14 100h-154q-12 0 -19 8t-5 19.5t11 19.5t21 8h124l-163 280q-4 8 -1 18.5t11.5 16.5t18.5 4.5t14 -9.5l175 -301l264 301q17 20 35 4q7 -5 7 -15.5t-7 -18.5l-248 -280h126q12 0 19 -8t5 -19.5t-11 -19.5 t-21 -8h-154l-14 -100h154q12 0 19 -8t5 -19.5t-11 -19.5t-21 -8h-154l-21 -143q-2 -10 -10 -17t-18 -7t-16 7t-4 17z" />
<glyph unicode="&#xa8;" horiz-adv-x="500" d="M138 637q3 18 17.5 30.5t32.5 12.5t28.5 -12.5t7 -30.5t-18 -30.5t-32.5 -12.5t-28.5 12.5t-6.5 30.5zM303 637q3 18 17.5 30.5t32.5 12.5t28.5 -12.5t7 -30.5t-18 -30.5t-32.5 -12.5t-28.5 12.5t-6.5 30.5z" />
<glyph unicode="&#xa9;" horiz-adv-x="830" d="M414 -12q-151 0 -256 105.5t-105 254.5v2q0 149 106 255.5t257 106.5t256 -105.5t105 -254.5v-2q0 -149 -106 -255.5t-257 -106.5zM414 16q141 0 237 97.5t96 236.5v2q0 138 -95 235t-236 97t-237 -97.5t-96 -236.5v-2q0 -138 95 -235t236 -97zM553 220 q-62 -54 -136.5 -54t-127 55t-52.5 133v2q0 77 53 133t127.5 56t131.5 -50q9 -7 9 -17t-6.5 -16t-14.5 -6t-17 7q-49 42 -104.5 42t-95 -43.5t-39.5 -104.5v-2q0 -61 40.5 -105t98 -44t106.5 44q8 5 15 5t13 -6t6 -15t-7 -14z" />
<glyph unicode="&#xab;" horiz-adv-x="515" d="M185 44q-12 0 -17 11l-106 179q-7 13 -6 22t14 22l168 179q11 11 20.5 11t15 -6t4 -15.5t-8.5 -16.5l-157 -173l95 -175q5 -8 3 -17q-4 -21 -25 -21zM389 44q-12 0 -17 11l-106 179q-7 13 -6 22t14 22l168 179q11 11 20.5 11t15 -6t4 -15.5t-8.5 -16.5l-157 -173l95 -175 q6 -11 3 -17q-5 -21 -25 -21z" />
<glyph unicode="&#xad;" horiz-adv-x="408" d="M85 328q-19 0 -19 19t19 19h213q19 0 19 -18q0 -9 -5.5 -14.5t-13.5 -5.5h-213z" />
<glyph unicode="&#xae;" horiz-adv-x="416" d="M331 411.5q-51 -51.5 -123.5 -51.5t-123 51t-50.5 123v1q0 72 51 123.5t123.5 51.5t123 -51t50.5 -123v-1q0 -72 -51 -123.5zM208 379q65 0 109.5 46t44.5 110v1q0 64 -44.5 109.5t-109.5 45.5t-109.5 -46t-44.5 -110v-1q0 -64 44.5 -109.5t109.5 -45.5zM258 471 q0 -46 20 -46h1l4 1q6 2 4 10q-2 5 -8 5q-6 3 -6 33.5t-30 46.5q-2 0 -3 1q36 17 36 57q0 26 -18 44.5t-44 18.5h-63q-7 0 -7 -8v-204q0 -8 8 -8t8 8v87h53l1 -1q44 -11 44 -45zM261 579q0 -19 -13.5 -33t-32.5 -14h-55v94h54q20 0 33.5 -14t13.5 -33z" />
<glyph unicode="&#xb4;" horiz-adv-x="500" d="M246 605q-12 -13 -28 -13t-16 9q-1 6 2 11l49 93q9 18 24 18t30 -7.5t16 -15t-8 -18.5z" />
<glyph unicode="&#xbb;" horiz-adv-x="515" d="M349.5 462q7.5 6 18 6t15.5 -11l106 -179q7 -13 6 -22t-14 -22l-168 -179q-11 -11 -20.5 -11t-15 6t-4 15.5t8.5 16.5l157 173l-95 175q-5 8 -3 17q1 9 8.5 15zM162 468q12 0 17 -11l106 -179q7 -13 6 -22t-14 -22l-168 -179q-11 -11 -20.5 -11t-15 6t-4 15.5t8.5 16.5 l157 173l-95 175q-6 11 -3 17q5 21 25 21z" />
<glyph unicode="&#xbf;" horiz-adv-x="534" d="M362 634.5q-8 -5.5 -17.5 -4t-15 9.5t-3.5 17l4 22q3 20 23 20q11 0 17.5 -9t5.5 -19l-4 -22q-2 -9 -10 -14.5zM237 -1q-80 0 -132.5 51.5t-52.5 130.5q0 12 4 38q15 83 80.5 142.5t149.5 67.5l19 111q3 20 23 20q13 0 19 -9t4 -19l-22 -125q0 -1 -1 -2q-2 -21 -23 -21 q-70 1 -131 -50q-75 -65 -75 -153q1 -59 38.5 -97t92 -38.5t98.5 23t74 63.5q6 8 15.5 9t17.5 -4.5t9 -15t-5 -17.5q-36 -48 -89.5 -76.5t-112.5 -28.5z" />
<glyph unicode="&#xc0;" horiz-adv-x="790" d="M519 182h-321l-93 -169q-7 -13 -17 -13t-16 3q-21 12 -10 33l360 651q6 13 25 13t22 -20l130 -651q2 -10 -3.5 -18.5t-15.5 -10.5h-5q-21 0 -24 20zM509 231l-75 377l-209 -377h284zM536 801q0 -9 -16 -9t-28 13l-69 77q-9 11 -8 18.5t16 15t30 7.5t24 -18l49 -93 q3 -5 2 -11z" />
<glyph unicode="&#xc1;" horiz-adv-x="790" d="M519 182h-321l-93 -169q-7 -13 -17 -13t-16 3q-21 12 -10 33l360 651q6 13 25 13t22 -20l130 -651q2 -10 -3.5 -18.5t-15.5 -10.5h-5q-21 0 -24 20zM509 231l-75 377l-209 -377h284zM450 805q-12 -13 -28 -13t-16 9q-1 6 2 11l49 93q9 18 24 18t30 -7.5t16 -15t-8 -18.5z " />
<glyph unicode="&#xc2;" horiz-adv-x="646" d="M518 182h-321l-93 -169q-6 -13 -16.5 -13t-16.5 3q-21 12 -10 33l360 651q6 13 25 13t22 -20l130 -651q2 -10 -3.5 -18.5t-15.5 -10.5h-5q-21 0 -24 20zM508 231l-75 377l-209 -377h284zM470 863l-70 -58q-17 -13 -31.5 -13t-14.5 10q2 7 7 12l84 88q16 18 30 18h8 q13 0 26 -18l60 -88q4 -7 3 -12q0 -10 -17 -10t-29 13z" />
<glyph unicode="&#xc3;" horiz-adv-x="790" d="M519 182h-321l-93 -169q-7 -13 -17 -13t-16 3q-21 12 -10 33l360 651q6 13 25 13t22 -20l130 -651q2 -10 -3.5 -18.5t-15.5 -10.5h-5q-21 0 -24 20zM509 231l-75 377l-209 -377h284zM370 798q-9 -14 -18.5 -14t-14 5t-3.5 12l4 12q19 42 40 58.5t44.5 16.5t66.5 -20.5 t60 -20.5q29 0 50 38q9 14 18.5 14t14.5 -5q8 -10 -1 -24q-19 -42 -40 -58.5t-45 -16.5t-67 20.5t-59 20.5q-29 0 -50 -38z" />
<glyph unicode="&#xc4;" horiz-adv-x="646" d="M518 182h-321l-93 -169q-6 -13 -16.5 -13t-16.5 3q-21 12 -10 33l360 651q6 13 25 13t22 -20l130 -651q2 -10 -3.5 -18.5t-15.5 -10.5h-5q-21 0 -24 20zM508 231l-75 377l-209 -377h284zM349 837q3 18 17.5 30.5t32.5 12.5t28.5 -12.5t7 -30.5t-18 -30.5t-32.5 -12.5 t-28.5 12.5t-6.5 30.5zM514 837q3 18 17.5 30.5t32.5 12.5t28.5 -12.5t7 -30.5t-18 -30.5t-32.5 -12.5t-28.5 12.5t-6.5 30.5z" />
<glyph unicode="&#xc5;" horiz-adv-x="790" d="M109 0l-9 1q-8 4 -11 13.5t3 18.5l330 600q-40 26 -32 74l1 1q6 36 37.5 62t67.5 26t59 -26t17 -62l-1 -1q-4 -24 -21.5 -45t-42.5 -32l119 -597q2 -9 -4 -19q-7 -12 -24 -13t-20 15l-33 165h-319l-91 -165q-10 -16 -26 -16zM433 707q-3 -21 9.5 -33.5t28 -12.5t29.5 8 q25 13 28 38l1 1q3 19 -8.5 34t-31.5 15t-36 -15t-19 -34zM252 230h283l-74 376z" />
<glyph unicode="&#xc6;" horiz-adv-x="1045" d="M81 14q-10 -13 -22 -13t-19.5 9t4.5 29l509 651q13 16 29 16h497q10 0 16 -7t4.5 -17t-10 -17t-18.5 -7h-411l-49 -275h366q10 0 16 -7t4.5 -17t-10 -17t-18.5 -7h-366l-50 -281h416q10 0 16 -7t4.5 -17t-10 -17t-18.5 -7h-442q-10 0 -17 7.5t-5 18.5l30 170h-300z M264 249h272l72 410h-26z" />
<glyph unicode="&#xc7;" horiz-adv-x="738" d="M675 108q-131 -105 -271 -109l-74 -110q-13 -20 -27 -20t-24 8q-16 13 0 31l79 93q-135 12 -206 113.5t-46 244.5v2q27 150 145.5 256t268.5 106q81 0 136.5 -25t103.5 -73q17 -21 -4 -39q-10 -8 -21.5 -8t-16.5 7q-84 91 -208.5 91t-225 -90.5t-123.5 -222.5l-1 -2 q-23 -133 46.5 -224t195 -91t244.5 97q10 8 19.5 8t16 -7.5t5 -17.5t-11.5 -18z" />
<glyph unicode="&#xc8;" horiz-adv-x="670" d="M126 -2q-23 5 -20 29l115 651q3 20 25 20h360q10 0 17 -7.5t7 -17.5t-7 -17t-17 -7h-340l-49 -277h290q10 0 17 -7t7 -17t-7 -17.5t-17 -7.5h-299l-49 -276h332q10 0 17 -7.5t7 -17.5t-7 -17t-17 -7h-365zM505 801q0 -9 -16 -9t-28 13l-69 77q-9 11 -8 18.5t16 15t30 7.5 t24 -18l49 -93q3 -5 2 -11z" />
<glyph unicode="&#xc9;" horiz-adv-x="670" d="M126 -2q-23 5 -20 29l115 651q3 20 25 20h360q10 0 17 -7.5t7 -17.5t-7 -17t-17 -7h-340l-49 -277h290q10 0 17 -7t7 -17t-7 -17.5t-17 -7.5h-299l-49 -276h332q10 0 17 -7.5t7 -17.5t-7 -17t-17 -7h-365zM462 805q-12 -13 -28 -13t-16 9q-1 6 2 11l49 93q9 18 24 18 t30 -7.5t16 -15t-8 -18.5z" />
<glyph unicode="&#xca;" horiz-adv-x="593" d="M126 -2q-23 5 -20 29l115 651q3 20 25 20h360q10 0 17 -7.5t7 -17.5t-7 -17t-17 -7h-340l-49 -277h290q10 0 17 -7t7 -17t-7 -17.5t-17 -7.5h-299l-49 -276h332q10 0 17 -7.5t7 -17.5t-7 -17t-17 -7h-365zM461 863l-70 -58q-17 -13 -31.5 -13t-14.5 10q2 7 7 12l84 88 q16 18 30 18h8q13 0 26 -18l60 -88q4 -7 3 -12q0 -10 -17 -10t-29 13z" />
<glyph unicode="&#xcb;" horiz-adv-x="593" d="M126 -2q-23 5 -20 29l115 651q3 20 25 20h360q10 0 17 -7.5t7 -17.5t-7 -17t-17 -7h-340l-49 -277h290q10 0 17 -7t7 -17t-7 -17.5t-17 -7.5h-299l-49 -276h332q10 0 17 -7.5t7 -17.5t-7 -17t-17 -7h-365zM340 837q3 18 17.5 30.5t32.5 12.5t28.5 -12.5t7 -30.5 t-18 -30.5t-32.5 -12.5t-28.5 12.5t-6.5 30.5zM505 837q3 18 17.5 30.5t32.5 12.5t28.5 -12.5t7 -30.5t-18 -30.5t-32.5 -12.5t-28.5 12.5t-6.5 30.5z" />
<glyph unicode="&#xcc;" horiz-adv-x="274" d="M41 -2h-4q-10 1 -16 9.5t-4 18.5l115 651q1 10 9.5 16t18.5 4.5t16 -10t4 -18.5l-115 -651q-3 -20 -24 -20zM216 801q0 -9 -16 -9t-28 13l-69 77q-9 11 -8 18.5t16 15t30 7.5t24 -18l49 -93q3 -5 2 -11z" />
<glyph unicode="&#xcd;" horiz-adv-x="274" d="M137 -2h-4q-10 1 -16 9.5t-4 18.5l115 651q1 10 9.5 16t18.5 4.5t16 -10t4 -18.5l-115 -651q-3 -20 -24 -20zM251 805q-12 -13 -28 -13t-16 9q-1 6 2 11l49 93q9 18 24 18t30 -7.5t16 -15t-8 -18.5z" />
<glyph unicode="&#xce;" horiz-adv-x="274" d="M54 -2h-4q-10 1 -16 9.5t-4 18.5l115 651q1 10 9.5 16t18.5 4.5t16 -10t4 -18.5l-115 -651q-3 -20 -24 -20zM195 863l-70 -58q-17 -13 -31.5 -13t-14.5 10q2 7 7 12l84 88q16 18 30 18h8q13 0 26 -18l60 -88q4 -7 3 -12q0 -10 -17 -10t-29 13z" />
<glyph unicode="&#xcf;" horiz-adv-x="274" d="M46 -2h-4q-10 1 -16 9.5t-4 18.5l115 651q1 10 9.5 16t18.5 4.5t16 -10t4 -18.5l-115 -651q-3 -20 -24 -20z" />
<glyph unicode="&#xd0;" horiz-adv-x="812" d="M72 331q-18 0 -15 20q3 18 22 18h84l54 308q2 10 10.5 17t18.5 7h131q145 0 229.5 -103t58.5 -248q-17 -95 -78 -175.5t-150 -127t-184 -46.5h-133q-21 2 -18 24l54 306h-84zM262 50q125 0 228.5 88t125.5 212.5t-50.5 212.5t-197.5 89h-106l-50 -283h80q8 0 12.5 -5 t3.5 -13.5t-8 -14t-15 -5.5h-80l-49 -281h106z" />
<glyph unicode="&#xd1;" horiz-adv-x="790" d="M106 30l114 648l1 1q0 11 12 20q22 11 33 -10l322 -591l102 580q1 10 9.5 16t18.5 4q23 -5 20 -29l-114 -647q-1 -9 -8.5 -14.5t-15.5 -5.5h-4q-11 1 -14.5 7.5t-5.5 8.5l-319 586l-103 -582q-3 -20 -24 -20h-4q-10 1 -16 9.5t-4 18.5zM424 798q-9 -14 -18.5 -14t-14 5 t-3.5 12l4 12q19 42 40 58.5t44.5 16.5t67 -20.5t59.5 -20.5q29 0 50 38q9 14 18.5 14t14.5 -5q8 -10 -1 -24q-19 -42 -40 -58.5t-44.5 -16.5t-67 20.5t-59.5 20.5q-29 0 -50 -38z" />
<glyph unicode="&#xd2;" horiz-adv-x="850" d="M467 700q122 0 200.5 -83.5t78.5 -206.5q0 -32 -6 -65l-24 5l24 -5q-26 -144 -138.5 -244.5t-242.5 -100.5t-208 82t-78 207q0 32 6 65q26 144 138 244.5t250 101.5zM692 354q5 32 5 56q-1 105 -65 172.5t-165 68.5h-2q-116 0 -216 -90t-122 -216q-5 -32 -5 -56 q1 -105 65 -172.5t165 -68.5q117 0 217.5 90t122.5 216zM610 801q0 -9 -16 -9t-28 13l-69 77q-9 11 -8 18.5t16 15t30 7.5t24 -18l49 -93q3 -5 2 -11z" />
<glyph unicode="&#xd3;" horiz-adv-x="850" d="M467 700q122 0 200.5 -83.5t78.5 -206.5q0 -32 -6 -65l-24 5l24 -5q-26 -144 -138.5 -244.5t-242.5 -100.5t-208 82t-78 207q0 32 6 65q26 144 138 244.5t250 101.5zM692 354q5 32 5 56q-1 105 -65 172.5t-165 68.5h-2q-116 0 -216 -90t-122 -216q-5 -32 -5 -56 q1 -105 65 -172.5t165 -68.5q117 0 217.5 90t122.5 216zM495 805q-12 -13 -28 -13t-16 9q-1 6 2 11l49 93q9 18 24 18t30 -7.5t16 -15t-8 -18.5z" />
<glyph unicode="&#xd4;" horiz-adv-x="850" d="M467 700q122 0 200.5 -83.5t78.5 -206.5q0 -32 -6 -65l-24 5l24 -5q-26 -144 -138.5 -244.5t-242.5 -100.5t-208 82t-78 207q0 32 6 65q26 144 138 244.5t250 101.5zM692 354q5 32 5 56q-1 105 -65 172.5t-165 68.5h-2q-116 0 -216 -90t-122 -216q-5 -32 -5 -56 q1 -105 65 -172.5t165 -68.5q117 0 217.5 90t122.5 216zM533 863l-70 -58q-17 -13 -31.5 -13t-14.5 10q2 7 7 12l84 88q16 18 30 18h8q13 0 26 -18l60 -88q4 -7 3 -12q0 -10 -17 -10t-29 13z" />
<glyph unicode="&#xd5;" horiz-adv-x="850" d="M467 700q122 0 200.5 -83.5t78.5 -206.5q0 -32 -6 -65l-24 5l24 -5q-26 -144 -138.5 -244.5t-242.5 -100.5t-208 82t-78 207q0 32 6 65q26 144 138 244.5t250 101.5zM692 354q5 32 5 56q-1 105 -65 172.5t-165 68.5h-2q-116 0 -216 -90t-122 -216q-5 -32 -5 -56 q1 -105 65 -172.5t165 -68.5q117 0 217.5 90t122.5 216zM423 798q-9 -14 -18.5 -14t-14 5t-3.5 12l4 12q19 42 40 58.5t45 16.5t67 -20.5t59 -20.5q29 0 50 38q9 14 18.5 14t13.5 -5q9 -10 0 -24q-19 -42 -40 -58.5t-45 -16.5t-66.5 20.5t-59.5 20.5q-29 0 -50 -38z" />
<glyph unicode="&#xd6;" horiz-adv-x="850" d="M467 700q122 0 200.5 -83.5t78.5 -206.5q0 -32 -6 -65l-24 5l24 -5q-26 -144 -138.5 -244.5t-242.5 -100.5t-208 82t-78 207q0 32 6 65q26 144 138 244.5t250 101.5zM692 354q5 32 5 56q-1 105 -65 172.5t-165 68.5h-2q-116 0 -216 -90t-122 -216q-5 -32 -5 -56 q1 -105 65 -172.5t165 -68.5q117 0 217.5 90t122.5 216zM451 837q3 18 17.5 30.5t32.5 12.5t28.5 -12.5t7 -30.5t-18 -30.5t-32.5 -12.5t-28.5 12.5t-6.5 30.5zM616 837q3 18 17.5 30.5t32.5 12.5t28.5 -12.5t7 -30.5t-18 -30.5t-32.5 -12.5t-28.5 12.5t-6.5 30.5z" />
<glyph unicode="&#xd7;" horiz-adv-x="620" d="M577 520l-199 -167l139 -166q8 -10 5 -20q-1 -10 -9.5 -17.5t-19.5 -7.5t-18 9l-137 168l-197 -169q-10 -8 -19.5 -8t-15.5 7t-4 17q1 10 11 18l199 167l-139 166q-8 10 -5 20q1 10 9.5 17.5t19.5 7.5t18 -9l137 -168l197 169q8 8 18.5 8t16.5 -7q13 -15 -7 -35z" />
<glyph unicode="&#xd8;" horiz-adv-x="850" d="M405 -3q-133 0 -213 82l-80 -71q-10 -8 -19 -8t-14 6t-3.5 15.5t8.5 15.5l81 73q-73 105 -47 247v2q26 148 144 255t273 107q132 0 213 -83l80 72q10 8 19 8t14 -6t3 -16t-8 -15l-82 -74q74 -103 48 -246v-2q-26 -148 -144 -255t-273 -107zM172 359q-21 -122 37 -210 l498 450q-70 75 -190.5 75t-220.5 -90.5t-124 -222.5v-2zM232 119q69 -75 190 -75t221.5 91t124.5 222v2q21 119 -37 209z" />
<glyph unicode="&#xd9;" horiz-adv-x="760" d="M712 701q23 -5 20 -29l-70 -392q-21 -116 -116 -197t-211 -82h-1q-103 0 -173 68q-68 68 -68 170q0 21 5 49l69 393q1 10 9.5 16t18.5 4q23 -5 20 -29l-69 -392q-4 -19 -4 -41q1 -82 54 -135t144.5 -54t174.5 70t99 168l70 393q1 10 9.5 16t18.5 4zM537 801q0 -9 -16 -9 t-28 13l-69 77q-9 11 -8 18.5t16 15t30 7.5t24 -18l49 -93q3 -5 2 -11z" />
<glyph unicode="&#xda;" horiz-adv-x="760" d="M712 701q23 -5 20 -29l-70 -392q-21 -116 -116 -197t-211 -82h-1q-103 0 -173 68q-68 68 -68 170q0 21 5 49l69 393q1 10 9.5 16t18.5 4q23 -5 20 -29l-69 -392q-4 -19 -4 -41q1 -82 54 -135t144.5 -54t174.5 70t99 168l70 393q1 10 9.5 16t18.5 4zM481 805 q-12 -13 -28 -13t-16 9q-1 6 2 11l49 93q9 18 24 18t30 -7.5t16 -15t-8 -18.5z" />
<glyph unicode="&#xdb;" horiz-adv-x="760" d="M712 701q23 -5 20 -29l-70 -392q-21 -116 -116 -197t-211 -82h-1q-103 0 -173 68q-68 68 -68 170q0 21 5 49l69 393q1 10 9.5 16t18.5 4q23 -5 20 -29l-69 -392q-4 -19 -4 -41q1 -82 54 -135t144.5 -54t174.5 70t99 168l70 393q1 10 9.5 16t18.5 4zM500 863l-70 -58 q-17 -13 -31.5 -13t-14.5 10q2 7 7 12l84 88q16 18 30 18h8q13 0 26 -18l60 -88q4 -7 3 -12q0 -10 -17 -10t-29 13z" />
<glyph unicode="&#xdc;" horiz-adv-x="814" d="M724 701q23 -5 20 -29l-70 -392q-21 -116 -116 -197t-211 -82h-1q-103 0 -173 68q-68 68 -68 170q0 21 5 49l69 393q1 10 9.5 16t18.5 4q23 -5 20 -29l-69 -392q-4 -19 -4 -41q1 -82 54 -135t144.5 -54t174.5 70t99 168l70 393q1 10 9.5 16t18.5 4zM377 837 q3 18 17.5 30.5t32.5 12.5t28.5 -12.5t7 -30.5t-18 -30.5t-32.5 -12.5t-28.5 12.5t-6.5 30.5zM542 837q3 18 17.5 30.5t32.5 12.5t28.5 -12.5t7 -30.5t-18 -30.5t-32.5 -12.5t-28.5 12.5t-6.5 30.5z" />
<glyph unicode="&#xdd;" horiz-adv-x="716" d="M581 658l-294 -324l-55 -315q-1 -9 -8.5 -14.5t-15.5 -5.5h-5q-10 1 -16 9.5t-4 18.5l56 314l-178 321q-5 9 -2 18.5t11 14.5q9 5 19 2.5t15 -11.5l165 -299l275 303q7 8 17 8.5t18 -6.5q18 -16 2 -34zM394 805q-12 -13 -28 -13t-16 9q-1 6 2 11l49 93q9 18 24 18 t30 -7.5t16 -15t-8 -18.5z" />
<glyph unicode="&#xe0;" horiz-adv-x="574" d="M258 0q-85 0 -140 58t-55 145q0 25 4 45q18 100 95.5 169.5t168 70t146.5 -58.5q18 -20 29 -40l14 79q2 10 9.5 15.5t17.5 4t15.5 -9.5t4.5 -18l-78 -440q-3 -20 -24 -20h-4q-10 2 -15.5 10t-3.5 18l11 64q-81 -90 -195 -92zM114 240q-4 -17 -4 -37q1 -68 42 -111 t111.5 -44t136.5 58q84 74 84 179q-1 68 -41.5 111t-106.5 44h-1q-76 0 -141.5 -59t-79.5 -141zM487 601q0 -9 -16 -9t-28 13l-69 77q-9 11 -8 18.5t16 15t30 7.5t24 -18l49 -93q3 -5 2 -11z" />
<glyph unicode="&#xe1;" horiz-adv-x="574" d="M258 0q-85 0 -140 58t-55 145q0 25 4 45q18 100 95.5 169.5t168 70t146.5 -58.5q18 -20 29 -40l14 79q2 10 9.5 15.5t17.5 4t15.5 -9.5t4.5 -18l-78 -440q-3 -20 -24 -20h-4q-10 2 -15.5 10t-3.5 18l11 64q-81 -90 -195 -92zM114 240q-4 -17 -4 -37q1 -68 42 -111 t111.5 -44t136.5 58q84 74 84 179q-1 68 -41.5 111t-106.5 44h-1q-76 0 -141.5 -59t-79.5 -141zM331 605q-12 -13 -28 -13t-16 9q-1 6 2 11l49 93q9 18 24 18t30 -7.5t16 -15t-8 -18.5z" />
<glyph unicode="&#xe2;" horiz-adv-x="574" d="M258 0q-85 0 -140 58t-55 145q0 25 4 45q18 100 95.5 169.5t168 70t146.5 -58.5q18 -20 29 -40l14 79q2 10 9.5 15.5t17.5 4t15.5 -9.5t4.5 -18l-78 -440q-3 -20 -24 -20h-4q-10 2 -15.5 10t-3.5 18l11 64q-81 -90 -195 -92zM114 240q-4 -17 -4 -37q1 -68 42 -111 t111.5 -44t136.5 58q84 74 84 179q-1 68 -41.5 111t-106.5 44h-1q-76 0 -141.5 -59t-79.5 -141zM414 663l-70 -58q-17 -13 -31.5 -13t-14.5 10q2 7 7 12l84 88q16 18 30 18h8q13 0 26 -18l60 -88q4 -7 3 -12q0 -10 -17 -10t-29 13z" />
<glyph unicode="&#xe3;" horiz-adv-x="574" d="M258 0q-85 0 -140 58t-55 145q0 25 4 45q18 100 95.5 169.5t168 70t146.5 -58.5q18 -20 29 -40l14 79q2 10 9.5 15.5t17.5 4t15.5 -9.5t4.5 -18l-78 -440q-3 -20 -24 -20h-4q-10 2 -15.5 10t-3.5 18l11 64q-81 -90 -195 -92zM114 240q-4 -17 -4 -37q1 -68 42 -111 t111.5 -44t136.5 58q84 74 84 179q-1 68 -41.5 111t-106.5 44h-1q-76 0 -141.5 -59t-79.5 -141zM304 598q-9 -14 -18.5 -14t-14 5t-3.5 12l4 12q19 42 40 58.5t44.5 16.5t66.5 -20.5t60 -20.5q29 0 50 38q9 14 18.5 14t14.5 -5q8 -10 -1 -24q-19 -42 -40 -58.5t-45 -16.5 t-67 20.5t-59 20.5q-29 0 -50 -38z" />
<glyph unicode="&#xe4;" horiz-adv-x="619" d="M235 0q-85 0 -140 58t-55 145q0 25 4 45q18 100 95.5 169.5t168 70t146.5 -58.5q18 -20 29 -40l14 79q2 10 9.5 15.5t17.5 4t15.5 -9.5t4.5 -18l-78 -440q-3 -20 -24 -20h-4q-10 2 -15.5 10t-3.5 18l11 64q-81 -90 -195 -92zM91 240q-4 -17 -4 -37q1 -68 42 -111 t111.5 -44t137.5 58q83 74 83 179q-1 68 -41.5 111t-106.5 44h-1q-76 0 -141.5 -59t-79.5 -141zM278 637q3 18 17.5 30.5t32.5 12.5t28.5 -12.5t7 -30.5t-18 -30.5t-32.5 -12.5t-28.5 12.5t-6.5 30.5zM443 637q3 18 17.5 30.5t32.5 12.5t28.5 -12.5t7 -30.5t-18 -30.5 t-32.5 -12.5t-28.5 12.5t-6.5 30.5z" />
<glyph unicode="&#xe5;" horiz-adv-x="574" d="M512 490q10 0 16 -7t4 -17l-78 -442q-1 -10 -9.5 -17t-18.5 -7t-16 7t-4 17l13 73q-40 -45 -93 -71t-108 -26q-96 0 -151 72t-38 173q18 101 98.5 173t176.5 72q55 0 99.5 -26t68.5 -70l12 72q5 24 28 24zM107.5 105.5q44.5 -57.5 120 -57.5t139.5 57.5t78 139.5 q15 82 -29 140t-119.5 58t-140 -58t-79 -140t30 -139.5zM386 586q-32 -26 -68 -26t-58.5 26.5t-16.5 60.5v1q7 36 38.5 62t67.5 26t59 -26t16 -62v-1q-6 -35 -38 -61zM294.5 615q11.5 -14 31 -14t36 14t19.5 32v1q4 19 -7.5 34t-31 15t-36 -15t-20.5 -34v-1q-3 -18 8.5 -32z " />
<glyph unicode="&#xe6;" horiz-adv-x="954" d="M958 286q0 -14 -3 -32q-5 -18 -23 -18h-406q-2 -10 -2 -30q0 -69 42.5 -112.5t101.5 -43.5q115 -1 187 90q7 8 16.5 9t17.5 -5.5t9 -16t-6 -17.5q-40 -50 -96.5 -79.5t-117.5 -29.5h-1q-88 0 -145 59q-24 24 -37 53l-16 -93q-3 -20 -24 -20h-4q-10 2 -15.5 10t-3.5 18 l11 64q-82 -90 -196 -92q-86 0 -141 58t-55 146q0 25 4 45q18 100 96 170t169 70.5t147 -58.5q18 -20 29 -40l14 79q2 10 9.5 15.5t17.5 4t15.5 -9.5t4.5 -18l-14 -77q87 104 213 106q88 0 145 -59t57 -146zM102 241q-4 -17 -4 -37q1 -68 42 -111.5t112 -44.5t138 58 q84 75 84 180q-1 69 -42 112t-107 44h-1q-76 0 -142 -59.5t-80 -141.5zM867 398.5q-42 43.5 -110.5 44.5t-130 -44.5t-87.5 -114.5h371v2q-1 69 -43 112.5z" />
<glyph unicode="&#xe7;" horiz-adv-x="571" d="M507 91q-96 -83 -201 -88l-73 -110q-13 -20 -27.5 -20t-24 8t-8.5 14.5t8 16.5l80 93q-95 13 -146 88.5t-34 174.5v2q20 109 109.5 188t196.5 79t179 -81q6 -6 4.5 -17t-10 -18.5t-19.5 -7.5t-16 6q-63 72 -148 72t-155.5 -63.5t-86.5 -155.5l-1 -2q-16 -92 33.5 -156.5 t137.5 -64.5t173 73q10 8 18.5 8t14.5 -7.5t4 -16.5q0 -9 -8 -15z" />
<glyph unicode="&#xe8;" horiz-adv-x="584" d="M542 286q0 -14 -3 -32q-6 -19 -23 -19h-405q-2 -10 -2 -30q0 -68 42.5 -111.5t101.5 -43.5q113 -1 186 89q7 8 16.5 9t17.5 -6q18 -15 3 -32q-39 -50 -95.5 -79.5t-118.5 -29.5h-1q-87 0 -143.5 58.5t-56.5 145.5q0 24 4 45q18 100 97.5 169.5t172.5 70t150 -58.5 t57 -145zM341 442q-68 1 -129.5 -44.5t-87.5 -113.5h370v2q-1 68 -43 111.5t-110 44.5zM456 601q0 -9 -16 -9t-28 13l-69 77q-9 11 -8 18.5t16 15t30 7.5t24 -18l49 -93q3 -5 2 -11z" />
<glyph unicode="&#xe9;" horiz-adv-x="584" d="M542 286q0 -14 -3 -32q-6 -19 -23 -19h-405q-2 -10 -2 -30q0 -68 42.5 -111.5t101.5 -43.5q113 -1 186 89q7 8 16.5 9t17.5 -6q18 -15 3 -32q-39 -50 -95.5 -79.5t-118.5 -29.5h-1q-87 0 -143.5 58.5t-56.5 145.5q0 24 4 45q18 100 97.5 169.5t172.5 70t150 -58.5 t57 -145zM341 442q-68 1 -129.5 -44.5t-87.5 -113.5h370v2q-1 68 -43 111.5t-110 44.5zM322 605q-12 -13 -28 -13t-16 9q-1 6 2 11l49 93q9 18 24 18t30 -7.5t16 -15t-8 -18.5z" />
<glyph unicode="&#xea;" horiz-adv-x="584" d="M542 286q0 -14 -3 -32q-6 -19 -23 -19h-405q-2 -10 -2 -30q0 -68 42.5 -111.5t101.5 -43.5q113 -1 186 89q7 8 16.5 9t17.5 -6q18 -15 3 -32q-39 -50 -95.5 -79.5t-118.5 -29.5h-1q-87 0 -143.5 58.5t-56.5 145.5q0 24 4 45q18 100 97.5 169.5t172.5 70t150 -58.5 t57 -145zM341 442q-68 1 -129.5 -44.5t-87.5 -113.5h370v2q-1 68 -43 111.5t-110 44.5zM395 663l-70 -58q-17 -13 -31.5 -13t-14.5 10q2 7 7 12l84 88q16 18 30 18h8q13 0 26 -18l60 -88q4 -7 3 -12q0 -10 -17 -10t-29 13z" />
<glyph unicode="&#xeb;" horiz-adv-x="609" d="M539 286q0 -14 -3 -32q-6 -19 -23 -19h-405q-2 -10 -2 -30q0 -68 42.5 -111.5t101.5 -43.5q113 -1 186 89q7 8 16.5 9t17.5 -6q18 -15 3 -32q-39 -50 -95.5 -79.5t-118.5 -29.5h-1q-87 0 -143.5 58.5t-56.5 145.5q0 24 4 45q18 100 97.5 169.5t172.5 70t150 -58.5 t57 -145zM338 442q-68 1 -129.5 -44.5t-87.5 -113.5h370v2q-1 68 -43 111.5t-110 44.5zM271 637q3 18 17.5 30.5t32.5 12.5t28.5 -12.5t7 -30.5t-18 -30.5t-32.5 -12.5t-28.5 12.5t-6.5 30.5zM436 637q3 18 17.5 30.5t32.5 12.5t28.5 -12.5t7 -30.5t-18 -30.5t-32.5 -12.5 t-28.5 12.5t-6.5 30.5z" />
<glyph unicode="&#xec;" horiz-adv-x="249" d="M24 0q-10 1 -15.5 9.5t-3.5 17.5l77 442q1 10 9.5 15.5t18.5 4.5q24 -6 19 -29l-78 -441q-3 -19 -23 -19h-4zM183 601q0 -9 -16 -9t-28 13l-69 77q-9 11 -8 18.5t16 15t30 7.5t24 -18l49 -93q3 -5 2 -11z" />
<glyph unicode="&#xed;" horiz-adv-x="249" d="M122 0q-10 1 -15.5 9.5t-3.5 17.5l77 442q1 10 9.5 15.5t18.5 4.5q24 -6 19 -29l-78 -441q-3 -19 -23 -19h-4zM221 605q-12 -13 -28 -13t-16 9q-1 6 2 11l49 93q9 18 24 18t30 -7.5t16 -15t-8 -18.5z" />
<glyph unicode="&#xee;" horiz-adv-x="249" d="M37 0q-10 1 -15.5 9.5t-3.5 17.5l77 442q1 10 9.5 15.5t18.5 4.5q24 -6 19 -29l-78 -441q-3 -19 -23 -19h-4zM144 663l-70 -58q-17 -13 -31.5 -13t-14.5 10q2 7 7 12l84 88q16 18 30 18h8q13 0 26 -18l60 -88q4 -7 3 -12q0 -10 -17 -10t-29 13z" />
<glyph unicode="&#xef;" horiz-adv-x="281" d="M116 0q-10 1 -15.5 9.5t-3.5 17.5l77 443q1 10 9.5 15.5t18.5 4.5q24 -6 19 -29l-78 -442q-3 -19 -23 -19h-4zM98 637q3 18 17.5 30.5t32.5 12.5t28.5 -12.5t7 -30.5t-18 -30.5t-32.5 -12.5t-28.5 12.5t-6.5 30.5zM263 637q3 18 17.5 30.5t32.5 12.5t28.5 -12.5t7 -30.5 t-18 -30.5t-32.5 -12.5t-28.5 12.5t-6.5 30.5z" />
<glyph unicode="&#xf0;" horiz-adv-x="628" d="M531 433l-111 208l-133 -62q-6 -3 -13.5 -3t-13 7t-3 18t17.5 18l127 57l-14 26q-4 9 -3 18q6 24 30 24q13 0 20 -13l16 -32l93 44q8 3 15 3t12.5 -7t3 -18t-17.5 -18l-88 -40l80 -161q32 -65 44 -120.5t0 -123.5q-19 -107 -105 -183.5t-196 -76.5t-169 75.5t-40.5 181 t101.5 173.5t180 68t167 -63zM456.5 105.5q67.5 61.5 82 145.5t-36 142.5t-138.5 58.5t-151 -57t-78 -142t32.5 -147t134.5 -62t154.5 61.5z" />
<glyph unicode="&#xf1;" d="M123 0h-9q-10 1 -15.5 9.5t-3.5 18.5l47 264v1l30 175q2 10 10 15.5t18 4t16 -9.5t4 -18l-7 -39q69 65 157 67q76 0 123.5 -48.5t47.5 -120.5q0 -17 -3 -35l-47 -265q-3 -19 -24 -19h-3q-10 2 -15.5 10t-3.5 18l46 264q2 20 2 27q-1 53 -34 86.5t-92 34.5t-113.5 -45.5 t-65.5 -109.5l-46 -266l-3 -8q-4 -4 -4 -5l-2 -2q-5 0 -5 -3h-3q-1 -1 -2 -1zM306 598q-9 -14 -18.5 -14t-14 5t-3.5 12l4 12q19 42 40 58.5t44.5 16.5t67 -20.5t59.5 -20.5q29 0 50 38q9 14 18.5 14t14.5 -5q8 -10 -1 -24q-19 -42 -40 -58.5t-44.5 -16.5t-67 20.5 t-59.5 20.5q-29 0 -50 -38z" />
<glyph unicode="&#xf2;" horiz-adv-x="640" d="M529 286q0 -25 -4 -46l-23 5l23 -5q-18 -100 -96 -170t-174 -70h-1q-85 0 -140.5 58.5t-55.5 145.5q0 24 4 45q18 100 96.5 170t169 70.5t146 -57.5t55.5 -146zM478 249q4 24 4 37q-1 68 -42 111.5t-107 44.5h-2q-76 0 -142 -60q-83 -74 -83 -178q1 -69 42 -112.5 t112 -44.5t137.5 59t80.5 143zM525 601q0 -9 -16 -9t-28 13l-69 77q-9 11 -8 18.5t16 15t30 7.5t24 -18l49 -93q3 -5 2 -11z" />
<glyph unicode="&#xf3;" horiz-adv-x="640" d="M529 286q0 -25 -4 -46l-23 5l23 -5q-18 -100 -96 -170t-174 -70h-1q-85 0 -140.5 58.5t-55.5 145.5q0 24 4 45q18 100 96.5 170t169 70.5t146 -57.5t55.5 -146zM478 249q4 24 4 37q-1 68 -42 111.5t-107 44.5h-2q-76 0 -142 -60q-83 -74 -83 -178q1 -69 42 -112.5 t112 -44.5t137.5 59t80.5 143zM308 605q-12 -13 -28 -13t-16 9q-1 6 2 11l49 93q9 18 24 18t30 -7.5t16 -15t-8 -18.5z" />
<glyph unicode="&#xf4;" horiz-adv-x="640" d="M529 286q0 -25 -4 -46l-23 5l23 -5q-18 -100 -96 -170t-174 -70h-1q-85 0 -140.5 58.5t-55.5 145.5q0 24 4 45q18 100 96.5 170t169 70.5t146 -57.5t55.5 -146zM478 249q4 24 4 37q-1 68 -42 111.5t-107 44.5h-2q-76 0 -142 -60q-83 -74 -83 -178q1 -69 42 -112.5 t112 -44.5t137.5 59t80.5 143zM409 663l-70 -58q-17 -13 -31.5 -13t-14.5 10q2 7 7 12l84 88q16 18 30 18h8q13 0 26 -18l60 -88q4 -7 3 -12q0 -10 -17 -10t-29 13z" />
<glyph unicode="&#xf5;" horiz-adv-x="640" d="M529 286q0 -25 -4 -46l-23 5l23 -5q-18 -100 -96 -170t-174 -70h-1q-85 0 -140.5 58.5t-55.5 145.5q0 24 4 45q18 100 96.5 170t169 70.5t146 -57.5t55.5 -146zM478 249q4 24 4 37q-1 68 -42 111.5t-107 44.5h-2q-76 0 -142 -60q-83 -74 -83 -178q1 -69 42 -112.5 t112 -44.5t137.5 59t80.5 143zM257 598q-9 -14 -18.5 -14t-14 5t-3.5 12l4 12q19 42 40 58.5t45 16.5t67 -20.5t59 -20.5q29 0 50 38q9 14 18.5 14t13.5 -5q9 -10 0 -24q-19 -42 -40 -58.5t-44.5 -16.5t-66.5 20.5t-60 20.5q-29 0 -50 -38z" />
<glyph unicode="&#xf6;" horiz-adv-x="625" d="M541 286q0 -25 -4 -46l-23 5l23 -5q-18 -100 -96 -170t-174 -70h-1q-85 0 -140.5 58.5t-55.5 145.5q0 24 4 45q18 100 96.5 170t169 70.5t146 -57.5t55.5 -146zM490 249q4 24 4 37q-1 68 -42 111.5t-107 44.5h-2q-76 0 -142 -60q-83 -74 -83 -178q1 -69 42 -112.5 t112 -44.5t137.5 59t80.5 143zM281 637q3 18 17.5 30.5t32.5 12.5t28.5 -12.5t7 -30.5t-18 -30.5t-32.5 -12.5t-28.5 12.5t-6.5 30.5zM446 637q3 18 17.5 30.5t32.5 12.5t28.5 -12.5t7 -30.5t-18 -30.5t-32.5 -12.5t-28.5 12.5t-6.5 30.5z" />
<glyph unicode="&#xf7;" horiz-adv-x="620" d="M84 244h444q21 0 32 24q2 10 -3.5 17t-15.5 7h-444q-10 0 -18.5 -7t-11 -17t2 -17t14.5 -7zM352 497.5q15 11.5 31.5 11.5t25 -12t3.5 -28l-5 -17q-4 -16 -19.5 -28t-32 -12t-25 11.5t-3.5 28.5l5 17q5 17 20 28.5zM237.5 112q15.5 12 32 12t25 -11.5t3.5 -28.5l-5 -17 q-5 -17 -20 -28.5t-31.5 -11.5t-25 12t-3.5 28l5 17q4 16 19.5 28z" />
<glyph unicode="&#xf8;" horiz-adv-x="640" d="M510.5 80q-89.5 -79 -193 -79t-165.5 60l-56 -49q-10 -8 -20 -8q-19 0 -16 19q2 9 8 15l60 52q-51 76 -33 176v2q19 109 108.5 188t194 79t163.5 -61l57 52q10 8 20 8q19 0 17 -19q-2 -9 -9 -15l-61 -54q52 -74 34 -176v-2q-19 -109 -108.5 -188zM191 99q49 -52 133 -52 t154.5 64t87.5 155v2q13 81 -23 141zM148 268q-15 -80 22 -141l353 309q-51 53 -134.5 53t-154 -64t-86.5 -155v-2z" />
<glyph unicode="&#xf9;" d="M491.5 483.5q7.5 5.5 17.5 4t15.5 -9.5t3.5 -18l-46 -265q-15 -82 -81 -137.5t-143.5 -56t-126 48t-48.5 119.5q0 17 3 35l47 264q2 10 10 15.5t17.5 4t15 -9.5t3.5 -18l-46 -265q-2 -18 -2 -26q1 -53 34 -86t92 -34t113.5 45.5t64.5 109.5l47 264q2 10 9.5 15.5z M424 601q0 -9 -16 -9t-28 13l-69 77q-9 11 -8 18.5t16 15t30 7.5t24 -18l49 -93q3 -5 2 -11z" />
<glyph unicode="&#xfa;" d="M491.5 483.5q7.5 5.5 17.5 4t15.5 -9.5t3.5 -18l-46 -265q-15 -82 -81 -137.5t-143.5 -56t-126 48t-48.5 119.5q0 17 3 35l47 264q2 10 10 15.5t17.5 4t15 -9.5t3.5 -18l-46 -265q-2 -18 -2 -26q1 -53 34 -86t92 -34t113.5 45.5t64.5 109.5l47 264q2 10 9.5 15.5z M351 605q-12 -13 -28 -13t-16 9q-1 6 2 11l49 93q9 18 24 18t30 -7.5t16 -15t-8 -18.5z" />
<glyph unicode="&#xfb;" d="M491.5 483.5q7.5 5.5 17.5 4t15.5 -9.5t3.5 -18l-46 -265q-15 -82 -81 -137.5t-143.5 -56t-126 48t-48.5 119.5q0 17 3 35l47 264q2 10 10 15.5t17.5 4t15 -9.5t3.5 -18l-46 -265q-2 -18 -2 -26q1 -53 34 -86t92 -34t113.5 45.5t64.5 109.5l47 264q2 10 9.5 15.5z M377 663l-70 -58q-17 -13 -31.5 -13t-14.5 10q2 7 7 12l84 88q16 18 30 18h8q13 0 26 -18l60 -88q4 -7 3 -12q0 -10 -17 -10t-29 13z" />
<glyph unicode="&#xfc;" d="M491.5 483.5q7.5 5.5 17.5 4t15.5 -9.5t3.5 -18l-46 -265q-15 -82 -81 -137.5t-143.5 -56t-126 48t-48.5 119.5q0 17 3 35l47 264q2 10 10 15.5t17.5 4t15 -9.5t3.5 -18l-46 -265q-2 -18 -2 -26q1 -53 34 -86t92 -34t113.5 45.5t64.5 109.5l47 264q2 10 9.5 15.5z M241 637q3 18 17.5 30.5t32.5 12.5t28.5 -12.5t7 -30.5t-18 -30.5t-32.5 -12.5t-28.5 12.5t-6.5 30.5zM406 637q3 18 17.5 30.5t32.5 12.5t28.5 -12.5t7 -30.5t-18 -30.5t-32.5 -12.5t-28.5 12.5t-6.5 30.5z" />
<glyph unicode="&#xfd;" horiz-adv-x="588" d="M488 488q9 -2 14.5 -8t5.5 -13q2 -3 0 -7l-75 -426q-17 -95 -94.5 -160.5t-172.5 -66.5q-52 0 -98 23q-21 12 -10 34q11 20 32 9q34 -18 76 -18q76 -1 141.5 55t78.5 132l4 23q-69 -64 -150 -64t-130 47q-47 47 -47 119q0 18 3 36l46 266q2 9 10 14.5t18 4.5 q24 -6 19 -28l-47 -266q-2 -9 -2 -27q1 -52 34.5 -85.5t92 -34t113 45.5t64.5 110l47 266q1 9 9.5 15t17.5 4zM356 605q-12 -13 -28 -13t-16 9q-1 6 2 11l49 93q9 18 24 18t30 -7.5t16 -15t-8 -18.5z" />
<glyph unicode="&#xff;" horiz-adv-x="588" d="M488 488q9 -2 14.5 -8t5.5 -13q2 -3 0 -7l-75 -426q-17 -95 -94.5 -160.5t-172.5 -66.5q-52 0 -98 23q-21 12 -10 34q11 20 32 9q34 -18 76 -18q76 -1 141.5 55t78.5 132l4 23q-69 -64 -150 -64t-130 47q-47 47 -47 119q0 18 3 36l46 266q2 9 10 14.5t18 4.5 q24 -6 19 -28l-47 -266q-2 -9 -2 -27q1 -52 34.5 -85.5t92 -34t113 45.5t64.5 110l47 266q1 9 9.5 15t17.5 4zM228 637q3 18 17.5 30.5t32.5 12.5t28.5 -12.5t7 -30.5t-18 -30.5t-32.5 -12.5t-28.5 12.5t-6.5 30.5zM393 637q3 18 17.5 30.5t32.5 12.5t28.5 -12.5t7 -30.5 t-18 -30.5t-32.5 -12.5t-28.5 12.5t-6.5 30.5z" />
<glyph unicode="&#x152;" horiz-adv-x="1152" d="M613 24l29 165q-58 -86 -146.5 -137.5t-183.5 -51.5q-141 0 -221 103.5t-54 251.5q27 148 143.5 251.5t257.5 103.5q95 0 164.5 -51.5t97.5 -137.5l28 155q1 10 9.5 17t18.5 7h360q10 0 16 -7t4 -17.5t-10.5 -17.5t-18.5 -7h-335l-49 -277h293q10 0 15.5 -7.5t4.5 -17.5 t-9.5 -17t-18.5 -7h-293l-49 -276h335q10 0 16 -7t4 -18q-6 -24 -29 -24h-362q-9 1 -14 8t-3 16zM208.5 572q-100.5 -88 -122.5 -216.5t46.5 -217.5t186.5 -89t218 89.5t122.5 217.5t-45.5 216t-186.5 88t-219 -88z" />
<glyph unicode="&#x153;" horiz-adv-x="1055" d="M967 286q0 -14 -3 -32q-5 -18 -23 -18h-406q-2 -10 -2 -30q0 -69 42.5 -112.5t101.5 -43.5q115 -1 187 90q7 8 16.5 9t17.5 -5.5t9 -16t-6 -17.5q-40 -50 -96.5 -79.5t-117.5 -29.5h-1q-88 0 -145 59q-36 36 -50 90q-37 -66 -101 -107t-135 -41h-1q-85 0 -140.5 58.5 t-55.5 145.5q0 24 4 45q18 100 96.5 170t169 70.5t147.5 -59.5q35 -36 47 -90q38 66 103.5 107t146.5 41.5t138 -58.5t57 -146zM478 251q4 24 4 37q-1 68 -42 111.5t-107 44.5h-2q-76 0 -142 -60q-83 -74 -83 -178q1 -69 42 -112.5t112 -44.5t137.5 59t80.5 143zM876 398.5 q-42 43.5 -110.5 44.5t-130 -44.5t-87.5 -114.5h371v2q-1 69 -43 112.5z" />
<glyph unicode="&#x160;" horiz-adv-x="640" d="M485 849l70 58q17 13 31.5 13t14.5 -10q-2 -7 -7 -12l-84 -88q-16 -18 -30 -18h-8q-13 0 -26 18l-60 88q-4 7 -3 12q0 10 17 10t29 -13zM73 100q103 -99 235 -100q103 0 187 55q87 54 101 135q27 148 -216 195h-2q-91 17 -137 51.5t-37 86t71 92.5q66 42 147 42 q35 0 70 -12.5t54 -24.5t52 -36q16 -12 32 6q15 19 -1 30q-32 24 -54 38t-63 28t-83 14q-97 0 -176 -51t-93 -127q-24 -135 202 -180h2q104 -21 151.5 -57.5t38 -93.5t-79 -102t-158.5 -45q-114 0 -210 89q-6 6 -15 5t-16 -8t-7.5 -16t5.5 -14z" />
<glyph unicode="&#x161;" horiz-adv-x="497" d="M60 69q72 -68 154.5 -68.5t143.5 39.5t71 99q12 59 -38 95q-40 30 -114 43l-2 1q-59 11 -89 33q-26 22 -21 51t44.5 55t89.5 26t116 -48q7 -5 17 -3t17 10t6.5 18t-7.5 15q-23 17 -37.5 26t-43 19t-58.5 10q-67 0 -123 -35q-59 -39 -69 -94.5t36 -89.5q35 -27 106 -40 l1 -1q133 -25 121 -91q-5 -34 -48 -62.5t-101 -28.5q-75 0 -135 58q-7 7 -17 6t-18 -9q-18 -18 -2 -34zM474 663l-70 -58q-17 -13 -31.5 -13t-14.5 10q2 7 7 12l84 88q16 18 30 18h8q13 0 26 -18l60 -88q4 -7 3 -12q0 -10 -17 -10t-29 13z" />
<glyph unicode="&#x178;" horiz-adv-x="716" d="M310.5 830.5q8.5 -10.5 6 -25t-14.5 -25t-27 -10.5t-23.5 10.5t-6 25t15 25t27 10.5t23 -10.5zM477.5 830.5q8.5 -10.5 6 -25t-14.5 -25t-27 -10.5t-23.5 10.5t-6 25t15 25t27 10.5t23 -10.5zM581 658l-294 -324l-55 -315q-1 -9 -8.5 -14.5t-15.5 -5.5h-5q-10 1 -16 9.5 t-4 18.5l56 314l-178 321q-5 9 -2 18.5t11 14.5q9 5 19 2.5t15 -11.5l165 -299l275 303q7 8 17 8.5t18 -6.5q18 -16 2 -34z" />
<glyph unicode="&#x192;" horiz-adv-x="506" d="M94 -5q-38 0 -38 22t31 22q67 0 82 82l49 263h-90q-9 0 -16 6.5t-7 16t7 16t16 6.5h98l26 136q14 74 48.5 107t94.5 33q35 0 57 -5.5t22 -23.5q0 -9 -6.5 -15t-11.5 -6t-23 3t-33 3q-41 0 -63 -23t-32 -76l-25 -133h136q9 0 16 -7t7 -16t-7 -15.5t-16 -6.5h-144l-50 -266 q-24 -123 -128 -123z" />
<glyph unicode="&#x2c6;" horiz-adv-x="500" d="M257 663l-70 -58q-17 -13 -31.5 -13t-14.5 10q2 7 7 12l84 88q16 18 30 18h8q13 0 26 -18l60 -88q4 -7 3 -12q0 -10 -17 -10t-29 13z" />
<glyph unicode="&#x2dc;" horiz-adv-x="500" d="M142 598q-9 -14 -18.5 -14t-14 5t-3.5 12l4 12q19 42 40 58.5t44.5 16.5t67 -20.5t59.5 -20.5q29 0 50 38q9 14 18.5 14t14.5 -5q8 -10 -1 -24q-19 -42 -40 -58.5t-44.5 -16.5t-67 20.5t-59.5 20.5q-29 0 -50 -38z" />
<glyph unicode="&#x2000;" horiz-adv-x="461" />
<glyph unicode="&#x2001;" horiz-adv-x="923" />
<glyph unicode="&#x2002;" horiz-adv-x="461" />
<glyph unicode="&#x2003;" horiz-adv-x="923" />
<glyph unicode="&#x2004;" horiz-adv-x="307" />
<glyph unicode="&#x2005;" horiz-adv-x="230" />
<glyph unicode="&#x2006;" horiz-adv-x="153" />
<glyph unicode="&#x2007;" horiz-adv-x="153" />
<glyph unicode="&#x2008;" horiz-adv-x="115" />
<glyph unicode="&#x2009;" horiz-adv-x="184" />
<glyph unicode="&#x200a;" horiz-adv-x="51" />
<glyph unicode="&#x2010;" horiz-adv-x="408" d="M85 328q-19 0 -19 19t19 19h213q19 0 19 -18q0 -9 -5.5 -14.5t-13.5 -5.5h-213z" />
<glyph unicode="&#x2011;" horiz-adv-x="408" d="M85 328q-19 0 -19 19t19 19h213q19 0 19 -18q0 -9 -5.5 -14.5t-13.5 -5.5h-213z" />
<glyph unicode="&#x2012;" horiz-adv-x="408" d="M85 328q-19 0 -19 19t19 19h213q19 0 19 -18q0 -9 -5.5 -14.5t-13.5 -5.5h-213z" />
<glyph unicode="&#x2013;" horiz-adv-x="528" d="M90 271q-11 0 -17 8t-4 18q1 10 10 18t20 8h344q10 0 17 -7.5t5 -18.5t-11.5 -18.5t-19.5 -7.5h-344z" />
<glyph unicode="&#x2014;" horiz-adv-x="898" d="M89 271q-11 0 -16.5 8t-2.5 18q2 10 11.5 18t20.5 8h714q10 0 16 -7.5t3.5 -18.5t-12.5 -18.5t-20 -7.5h-714z" />
<glyph unicode="&#x2018;" horiz-adv-x="230" d="M207 524q3 -15 -12 -15q-19 0 -60 32q-31 27 -48 104l-5 25q-4 13 3.5 23t21 10t25.5 -9.5t16 -23.5l4 -21q6 -28 -20 -35q7 -49 64 -77q9 -5 11 -13z" />
<glyph unicode="&#x2019;" horiz-adv-x="230" d="M61 524q2 8 11 13q57 28 64 77q-26 7 -20 35l4 21q4 14 16 23.5t25.5 9.5t21 -10t3.5 -23l-5 -25q-17 -77 -48 -104q-41 -32 -60 -32q-15 0 -12 15z" />
<glyph unicode="&#x201a;" horiz-adv-x="230" />
<glyph unicode="&#x201c;" horiz-adv-x="410" d="M387 688q-2 -8 -11 -13q-57 -28 -64 -77q26 -7 20 -35l-4 -21q-4 -14 -16 -23.5t-25.5 -9.5t-21 10t-3.5 23l5 25q17 77 48 104q41 32 60 32q15 0 12 -15zM207 688q-2 -8 -11 -13q-57 -28 -64 -77q26 -7 20 -35l-4 -21q-4 -14 -16 -23.5t-25.5 -9.5t-21 10t-3.5 23l5 25 q16 77 48 104q41 32 60 32q15 0 12 -15z" />
<glyph unicode="&#x201d;" horiz-adv-x="410" d="M61 524q2 8 11 13q57 28 64 77q-26 7 -20 35l4 21q4 14 16 23.5t25.5 9.5t21 -10t3.5 -23l-5 -25q-17 -77 -48 -104q-41 -32 -60 -32q-15 0 -12 15zM241 524q2 8 11 13q57 28 64 77q-26 7 -20 35l4 21q4 14 16 23.5t25.5 9.5t21 -10t3.5 -23l-5 -25q-17 -77 -48 -104 q-41 -32 -60 -32q-15 0 -12 15z" />
<glyph unicode="&#x201e;" horiz-adv-x="410" d="M56 -82q2 8 11 13q57 28 64 77q-26 7 -20 35l4 21q4 14 16 23.5t25.5 9.5t21 -10t3.5 -23l-5 -25q-16 -77 -48 -104q-41 -32 -60 -32q-15 0 -12 15zM236 -82q2 8 11 13q57 28 64 77q-26 7 -20 35l4 21q4 14 16 23.5t25.5 9.5t21 -10t3.5 -23l-5 -25q-16 -77 -48 -104 q-41 -32 -60 -32q-15 0 -12 15z" />
<glyph unicode="&#x2020;" horiz-adv-x="410" d="M136 261l52 267l-107 -6q-10 -1 -16 5.5t-4 15.5t10 16t17 6l104 -6l16 123q1 11 9 18.5t19 7.5t16.5 -7.5t3.5 -18.5l-28 -123l106 6q9 1 15 -6t4.5 -16t-10 -15.5t-16.5 -5.5l-105 6l-42 -267q-5 -23 -26 -23q-9 0 -14.5 6.5t-3.5 16.5z" />
<glyph unicode="&#x2021;" horiz-adv-x="430" d="M168 26l28 123l-106 -6q-9 -1 -15 6t-4 16q1 9 9.5 15.5t16.5 5.5l105 -6l26 174l36 174l-107 -6q-10 -1 -16 5.5t-4 15.5t10 16t17 6l104 -6l16 123q1 11 9 18.5t19 7.5t16.5 -7.5t3.5 -18.5l-28 -123l106 6q9 1 15 -6t4.5 -16t-10 -15.5t-16.5 -5.5l-105 6l-26 -174 l-36 -174l107 6q10 1 16 -5.5t4 -15.5t-10 -16t-17 -6l-104 6l-16 -123q-2 -11 -9.5 -18.5t-18.5 -7.5t-17 7.5t-3 18.5z" />
<glyph unicode="&#x2022;" horiz-adv-x="470" d="M224 228q-51 0 -80.5 36t-20.5 87l1 2q9 50 53.5 86.5t93.5 36.5t79.5 -36.5t21.5 -86.5l-1 -2q-9 -51 -52.5 -87t-94.5 -36z" />
<glyph unicode="&#x2026;" horiz-adv-x="680" d="M193 98.5q13 -16.5 8.5 -41t-24 -41t-44.5 -16.5t-37 16.5t-7.5 41t23 41t43.5 16.5t38 -16.5zM434 98.5q13 -16.5 8.5 -41t-24 -41t-44.5 -16.5t-37 16.5t-7.5 41t23 41t43.5 16.5t38 -16.5zM675 98.5q13 -16.5 8.5 -41t-24 -41t-44.5 -16.5t-37 16.5t-7.5 41t23 41 t43.5 16.5t38 -16.5z" />
<glyph unicode="&#x202f;" horiz-adv-x="184" />
<glyph unicode="&#x2039;" horiz-adv-x="311" d="M185 45q-12 0 -17 11l-106 179q-7 13 -6 22t14 22l168 179q11 11 20.5 11t15 -6t4 -15.5t-8.5 -16.5l-157 -173l95 -175q5 -8 3 -17q-4 -21 -25 -21z" />
<glyph unicode="&#x203a;" horiz-adv-x="311" d="M145.5 463q7.5 6 18 6t15.5 -11l106 -179q7 -13 6 -22t-14 -22l-168 -179q-11 -11 -20.5 -11t-15 6t-4 15.5t8.5 16.5l157 173l-95 175q-5 8 -3 17q1 9 8.5 15z" />
<glyph unicode="&#x205f;" horiz-adv-x="230" />
<glyph unicode="&#x2122;" horiz-adv-x="690" d="M83 400q-11 2 -9 12l47 268h-89q-10 0 -10 10.5t10 10.5h203q10 0 10 -10.5t-10 -10.5h-93l-47 -271q-2 -9 -11 -9h-1zM513 399q-10 2 -8 12l43 245l-120 -134q-3 -3 -8 -3h-1q-6 0 -9 6l-73 134l-44 -251q-1 -9 -11 -9h-2q-9 1 -9 12l50 280q2 9 11 9q5 0 10 -5l80 -148 l134 149q3 4 8 4h2q11 -2 9 -12l-50 -280q-1 -9 -10 -9h-2z" />
<glyph unicode="&#x25fc;" horiz-adv-x="490" d="M0 490h490v-490h-490v490z" />
</font>
</defs>
</svg>
